<svg id="Слой_1" data-name="Слой 1" xmlns="http://www.w3.org/2000/svg" viewBox="0 0 100 50"><defs><style>.cls-1{fill:#db2878;}</style></defs><rect class="cls-1" x="10.22" y="10.8" width="20.48" height="8.8" rx="1.15"/><rect class="cls-1" x="10.22" y="30.43" width="20.48" height="8.8" rx="1.15"/><rect class="cls-1" x="3.65" y="20.61" width="20.48" height="8.8" rx="1.15"/><rect class="cls-1" x="18.65" y="23.89" width="28.59" height="2.22" rx="0.57" transform="translate(57.95 -7.95) rotate(90)"/><path class="cls-1" d="M45.17,22.66a1.25,1.25,0,0,1-.36.92,1.24,1.24,0,0,1-.92.36,1.32,1.32,0,0,1-.94-.35,1.26,1.26,0,0,1-.35-.93v-4H38.11v4a1.26,1.26,0,0,1-.35.93,1.32,1.32,0,0,1-.94.35,1.2,1.2,0,0,1-1.28-1.28V12.15a1.22,1.22,0,0,1,.35-.92,1.25,1.25,0,0,1,.93-.34,1.31,1.31,0,0,1,.94.34,1.22,1.22,0,0,1,.35.92v4H40v-4a1.16,1.16,0,0,1,.37-.89,1.35,1.35,0,0,1,.94-.35,1.12,1.12,0,0,1,1.26,1.28v4h0a2.78,2.78,0,0,1,1.81.9A2.66,2.66,0,0,1,45.17,19Z"/><path class="cls-1" d="M55.44,13.76V22.7a1.14,1.14,0,0,1-.39.91,1.39,1.39,0,0,1-1.79,0,1.13,1.13,0,0,1-.41-.92v-4H48.34v3.94a1.21,1.21,0,0,1-.38.94,1.37,1.37,0,0,1-.91.34,1.32,1.32,0,0,1-.9-.34,1.18,1.18,0,0,1-.38-.94v-8.9a2.72,2.72,0,0,1,.84-2,2.84,2.84,0,0,1,2-.81h3.91a2.86,2.86,0,0,1,2,.81A2.7,2.7,0,0,1,55.44,13.76Zm-2.59,2.42V13.46H48.34v2.72Z"/><path class="cls-1" d="M64.39,23.94a1.24,1.24,0,0,1-1.3-1.3V13.52H58.57v9.12a1.27,1.27,0,0,1-.36.94,1.24,1.24,0,0,1-.93.36,1.23,1.23,0,0,1-.93-.36,1.3,1.3,0,0,1-.35-.94V13.82A2.83,2.83,0,0,1,58.87,11h3.9a2.83,2.83,0,0,1,2,.83,2.78,2.78,0,0,1,.84,2v8.82a1.23,1.23,0,0,1-1.27,1.3Z"/><path class="cls-1" d="M73,23.94H67.54a1.33,1.33,0,0,1-1.31-1.34V12.26a1.3,1.3,0,0,1,.38-1,1.46,1.46,0,0,1,1.06-.37H73a2.8,2.8,0,0,1,2,.83,2.69,2.69,0,0,1,.85,2v2.09a2.05,2.05,0,0,1-.75,1.57A1.86,1.86,0,0,1,75.89,19v2.08a2.74,2.74,0,0,1-.84,2A2.83,2.83,0,0,1,73,23.94Zm.3-10.48H68.8v2.7h4.5Zm0,5.24H68.8v2.68h4.5Z"/><path class="cls-1" d="M86.12,13.76V22.7a1.16,1.16,0,0,1-.38.91,1.35,1.35,0,0,1-.89.33,1.29,1.29,0,0,1-.9-.32,1.13,1.13,0,0,1-.42-.92v-4H79v3.94a1.19,1.19,0,0,1-.39.94,1.35,1.35,0,0,1-.91.34,1.32,1.32,0,0,1-.9-.34,1.21,1.21,0,0,1-.37-.94v-8.9a2.72,2.72,0,0,1,.84-2,2.84,2.84,0,0,1,2-.81h3.9a2.86,2.86,0,0,1,2,.81A2.69,2.69,0,0,1,86.12,13.76Zm-2.59,2.42V13.46H79v2.72Z"/><path class="cls-1" d="M95.08,23.94a1.24,1.24,0,0,1-1.3-1.3V13.52H89.26v9.12a1.24,1.24,0,0,1-1.3,1.3,1.24,1.24,0,0,1-.93-.36,1.29,1.29,0,0,1-.34-.94V13.82a2.77,2.77,0,0,1,.83-2,2.81,2.81,0,0,1,2-.83h3.9a2.83,2.83,0,0,1,2.05.83,2.78,2.78,0,0,1,.84,2v8.82a1.29,1.29,0,0,1-.35.93A1.26,1.26,0,0,1,95.08,23.94Z"/><path class="cls-1" d="M45.17,37.79a1.22,1.22,0,0,1-.36.92,1.24,1.24,0,0,1-.92.36,1.27,1.27,0,0,1-.94-.35,1.26,1.26,0,0,1-.35-.93v-4H38.11v4a1.26,1.26,0,0,1-.35.93,1.27,1.27,0,0,1-.94.35,1.22,1.22,0,0,1-.93-.35,1.26,1.26,0,0,1-.35-.93V27.28a1.25,1.25,0,0,1,.35-.92,1.29,1.29,0,0,1,.93-.33,1.35,1.35,0,0,1,.94.33,1.25,1.25,0,0,1,.35.92v4H40V27.27a1.18,1.18,0,0,1,.37-.9,1.34,1.34,0,0,1,.94-.34,1.12,1.12,0,0,1,1.26,1.28v4h0a2.78,2.78,0,0,1,1.81.9,2.64,2.64,0,0,1,.74,1.93Z"/><path class="cls-1" d="M47.25,39.07a1.63,1.63,0,0,1-1-.34,1.11,1.11,0,0,1-.43-.94V27.3a1.1,1.1,0,0,1,.43-.93,1.9,1.9,0,0,1,2.08,0,1.1,1.1,0,0,1,.47.95V37.79a1.1,1.1,0,0,1-.44.94A1.64,1.64,0,0,1,47.25,39.07Z"/><path class="cls-1" d="M52.15,26.06h5.52a1.27,1.27,0,1,1,0,2.54H55.4v9.23a1.2,1.2,0,0,1-.36.91,1.25,1.25,0,0,1-.9.35,1.27,1.27,0,0,1-.94-.36,1.86,1.86,0,0,1-.35-.9V28.6H50.59a1.26,1.26,0,0,1-.91-.36,1.22,1.22,0,0,1-.36-.9,1.27,1.27,0,0,1,.35-.92,1.25,1.25,0,0,1,.92-.36h1.56Z"/></svg>