<svg id="Слой_1" data-name="Слой 1" xmlns="http://www.w3.org/2000/svg" viewBox="0 0 283.46 141.73"><defs><style>.cls-1{fill:#db2878;}</style></defs><path class="cls-1" d="M73.81,48.63c-2.94-3.54-6.85-6.12-12.32-8.12a39.27,39.27,0,0,0-24.59-.68c-9.3,2.87-16.7,9.29-21.41,18.55A63.29,63.29,0,0,0,8.4,87c0,8.18,1.83,15.48,5,20,3.91,5.64,6,7.47,9.59,7.47a33.1,33.1,0,0,0,6.84-1.13l1.23-.28c17-3.88,39.94-9.89,43.2-17.31l1-2.21c3.58-8,8-17.85,5-30.7C78.73,56.65,76.69,52.11,73.81,48.63Zm5.52,24.24c0,.45,0,.88,0,1.3s-.06.8-.09,1.16c-.06.74-.11,1.37-.19,1.9s-.14.93-.18,1.21l-.06.42,0-.43c0-.28,0-.69,0-1.22s0-1.16,0-1.89c0-.37,0-.75,0-1.16s0-.84,0-1.29,0-.91-.08-1.4c0-.24,0-.48,0-.73l0-.38c0-.12,0-.25,0-.38,0-.5-.11-1-.16-1.56s-.16-1.08-.24-1.63-.21-1.11-.31-1.67c-.05-.28-.13-.56-.19-.84s-.13-.57-.19-.86c-.14-.56-.31-1.13-.46-1.7s-.36-1.13-.55-1.69a32.66,32.66,0,0,0-1.31-3.29c-.48-1.07-1-2.09-1.56-3.06-.29-.47-.56-1-.85-1.4l-.43-.67L72,51c-.59-.83-1.18-1.61-1.76-2.29a31.47,31.47,0,0,0-3-3.13c-.39-.35-.7-.61-.92-.79l-.34-.26.37.22c.23.16.58.38,1,.7s.93.71,1.48,1.2,1.16,1.06,1.78,1.73c.32.33.63.68,1,1L72,50c.16.2.32.39.47.61a30.36,30.36,0,0,1,1.86,2.7A33.54,33.54,0,0,1,76,56.38a35.27,35.27,0,0,1,1.37,3.36c.19.58.37,1.16.55,1.74s.31,1.16.45,1.75.26,1.16.36,1.73.2,1.15.27,1.72.14,1.12.19,1.66.07,1.08.11,1.6c0,.13,0,.26,0,.38s0,.26,0,.39,0,.5,0,.74C79.35,71.94,79.36,72.41,79.33,72.87Zm-54,39.59-.92.17a6.11,6.11,0,0,1-.95.05,5.87,5.87,0,0,1-1.79-.36,9.39,9.39,0,0,1-2.8-1.68,16.5,16.5,0,0,1-1.91-2c-.51-.63-.92-1.21-1.25-1.69s-.55-.87-.71-1.14l-.23-.42s.35.56,1.05,1.49c.35.46.79,1,1.33,1.59a17.82,17.82,0,0,0,2,1.83,9.23,9.23,0,0,0,2.71,1.51,5.33,5.33,0,0,0,1.64.28,6.07,6.07,0,0,0,.85-.06l.9-.18c1.22-.24,2.46-.53,3.73-.82l3.84-.9,7.56-1.81,6.6-1.57,4.68-1.07,1.31-.3.47-.1-.46.14-1.29.38c-1.11.32-2.7.79-4.61,1.32L44,108l-3.46.92-3.71,1-3.84.94c-1.29.3-2.58.6-3.85.88S26.57,112.24,25.35,112.46ZM13,100.88a30.5,30.5,0,0,1-1.79-7.28s6.82,5.88,26.57,1.31c16.82-3.89,22.88-7.69,30.84-16C68.64,78.86,60.24,99.24,13,100.88ZM70.8,79.21c-.06.21-.13.4-.19.6l-.09.29-.11.27c-.14.36-.27.71-.4,1s-.24.63-.36.9l-.34.74c-.21.46-.38.8-.5,1l-.17.37.12-.39c.08-.25.19-.63.34-1.09.08-.24.16-.5.26-.78s.16-.59.26-.92c.18-.66.4-1.4.58-2.23.09-.41.2-.83.28-1.27s.17-.9.25-1.38.14-1,.2-1.45l.09-.76c0-.25,0-.51,0-.77s0-.52.05-.78,0-.53,0-.79c0-.53,0-1.07-.06-1.61L71,69.42c0-.27-.07-.54-.11-.81v-.06l0,.35a18,18,0,0,1-1.62,6A22,22,0,0,1,65.82,80a30.29,30.29,0,0,1-4.5,4.13,41,41,0,0,1-5,3.24A53.73,53.73,0,0,1,51,89.92c-1.77.73-3.55,1.37-5.31,1.91s-3.49,1-5.19,1.44a76.06,76.06,0,0,1-9.7,1.79,44.75,44.75,0,0,1-8.33.19,31.16,31.16,0,0,1-6.33-1.13,24,24,0,0,1-3.85-1.49c-.42-.21-.75-.38-1-.5L11,92l.33.17c.22.12.55.27,1,.47A27.06,27.06,0,0,0,16.2,94a30.7,30.7,0,0,0,6.3,1,46.71,46.71,0,0,0,8.25-.35,75.76,75.76,0,0,0,9.6-1.92c1.68-.45,3.41-.94,5.14-1.5s3.48-1.21,5.22-1.94a47.18,47.18,0,0,0,10.1-5.71,29.69,29.69,0,0,0,4.36-4,21.19,21.19,0,0,0,3.28-5A17,17,0,0,0,70,68.82a4.41,4.41,0,0,0-.45-2.68,4,4,0,0,0-2.1-1.64,11.36,11.36,0,0,0-2.8-.6,28,28,0,0,0-2.9-.1c-1.94,0-3.86.22-5.74.43-3.78.43-7.42,1-10.9,1.32-1.74.18-3.44.32-5.09.36-.83,0-1.64,0-2.43,0l-2.33,0c-3,0-5.84,0-8.31-.08l-6.41-.08L15,65.65l5.58-.09L27,65.48l8.31-.08,2.33,0c.79,0,1.59,0,2.41,0,1.63-.06,3.31-.22,5-.42,3.46-.4,7.09-1,10.88-1.46,1.89-.22,3.83-.42,5.81-.47a25.16,25.16,0,0,1,3,.08,11.48,11.48,0,0,1,3,.64,5.76,5.76,0,0,1,1.42.77,4.22,4.22,0,0,1,1,1l0-.08c-.1-.25-.2-.51-.29-.76l-.15-.37-.18-.37a16.07,16.07,0,0,0-1.59-2.71l-.47-.61c-.16-.2-.33-.38-.49-.57l-.24-.28-.25-.26L66,59a21.65,21.65,0,0,0-2.06-1.71c-.68-.48-1.32-.9-1.92-1.24s-1.12-.61-1.56-.81-.81-.37-1-.46L59,54.62l.4.08c.25.06.63.16,1.1.31a18.44,18.44,0,0,1,3.76,1.73,18.23,18.23,0,0,1,2.25,1.64,16,16,0,0,1,2.17,2.25c.18.21.33.44.49.66s.33.45.47.7l.44.72c.14.25.26.51.39.77l.19.38.16.4.33.81c.08.28.17.55.26.83l.13.42c0,.14.07.28.1.42l.19.85c0,.14,0,.29.07.43l.06.43c0,.29.09.57.12.86s0,.57,0,.85l0,.43c0,.14,0,.28,0,.42s0,.57,0,.84,0,.56,0,.83,0,.54-.08.81,0,.54-.07.8-.09.52-.14.77c-.09.51-.16,1-.28,1.49s-.23.94-.34,1.39S70.93,78.8,70.8,79.21ZM55.56,74.78c.13.75.28,1.53.39,2.32a14,14,0,0,1,.17,2.43,9.21,9.21,0,0,1-.33,2.36A8.53,8.53,0,0,1,54.91,84c-.18.3-.37.59-.57.86a8.87,8.87,0,0,1-.61.72,10.23,10.23,0,0,1-1.21,1.13,11.88,11.88,0,0,1-1,.74c-.29.19-.53.33-.69.42l-.25.14.21-.2.59-.54c.25-.24.54-.53.86-.88a12.12,12.12,0,0,0,1-1.22,9.91,9.91,0,0,0,1-1.57,8.69,8.69,0,0,0,.66-1.9,10,10,0,0,0,.22-2.14,17.77,17.77,0,0,0-.18-2.26c-.1-.76-.23-1.53-.33-2.32a9.08,9.08,0,0,1-.06-2.39c0-.1,0-.2.05-.3s0-.22.08-.29l.16-.53c.12-.34.22-.67.33-1,.22-.64.44-1.25.63-1.81.41-1.11.76-2,1-2.67s.42-1,.42-1-.08.38-.23,1.06-.38,1.63-.66,2.78l-.45,1.85c-.08.33-.17.66-.26,1,0,.17-.09.35-.12.51s0,.16,0,.24a1.94,1.94,0,0,0,0,.24A9.39,9.39,0,0,0,55.56,74.78ZM34.64,68.06h.29c1.24,0,2.48-.12,3.7-.2l1.82-.14,1.76-.17.85-.08c-5.33,3.22-17.75,12-23.41,26.57a8.44,8.44,0,0,1-1.9-.41S23.47,74.5,34.64,68.06Zm9.51-1.24-2,.12L40.4,67c-.6,0-1.2.06-1.81.09l-2.22.06c.42-.18.84-.35,1.26-.49A46.19,46.19,0,0,0,45.58,66S45.05,66.3,44.15,66.82Zm-16.4.38h-.11l-1.7,0H21.3c-.93,0-1.78,0-2.53,0l-2,.07-1.26.07-.45,0,.44.07,1.26.16,1.95.18q.57.06,1.2.09c.42,0,.87.07,1.33.09l1.45.06,1.56,0,1.63,0h.91c-3.45,3.75-12,14.13-12,24.75a11.15,11.15,0,0,1-3.56-1.68S9.87,78.56,14.59,66.7H28.25Zm-.62-11.66h.06l1.19,0h1.26c.85,0,1.72,0,2.62,0l1.34,0h1.33c.87,0,1.76-.11,2.63-.22s1.74-.24,2.57-.38,1.63-.3,2.39-.46,1.48-.31,2.14-.46l1.81-.42,1.38-.34L49.06,53l-.3.13c-.2.08-.48.2-.86.34l-1.34.5c-.52.19-1.11.4-1.76.61l-1,.33-1.09.34c-.75.22-1.55.44-2.38.65s-1.7.41-2.59.58-1.8.3-2.74.4c-.24,0-.46,0-.69,0l-.34,0H33.6l-1.34,0-2,0L28.87,57l-1.25,0-1.2,0c-.78,0-1.51,0-2.2,0-1.36,0-2.49.15-3.29.25s-1.26.21-1.26.21.45.14,1.24.3,1.91.35,3.27.49l1.24.1A36.83,36.83,0,0,0,22.3,65H15.5C27.23,35.26,53.19,40.3,53.19,40.3,39.85,41,31.69,48.87,27.13,55.54Zm28.67-8a18,18,0,0,1,2.92-.77,13.89,13.89,0,0,1,2.93-.17,11.33,11.33,0,0,1,5,1.37c.34.18.64.38.94.56s.55.37.79.57a7.48,7.48,0,0,1,.65.55,6.52,6.52,0,0,1,.53.49c.16.16.3.29.41.42s.21.23.29.32l.24.26-.26-.24-.32-.29-.44-.38c-.16-.14-.35-.29-.56-.44s-.44-.32-.69-.49-.52-.33-.8-.51-.61-.34-.94-.49a11.45,11.45,0,0,0-2.23-.79,12,12,0,0,0-2.6-.35,14.17,14.17,0,0,0-2.8.23,16.75,16.75,0,0,0-2.81.77,23.55,23.55,0,0,0-2.68,1.16c-.43.23-.84.45-1.26.7s-.84.47-1.27.67a24.89,24.89,0,0,1-2.49,1.07c-.81.31-1.58.56-2.3.78l-1,.3-.93.25-1.54.35c-.85.18-1.34.26-1.34.26l1.31-.39L44,52.83c.57-.19,1.22-.41,1.92-.67s1.45-.54,2.23-.87,1.6-.7,2.41-1.13c.42-.21.81-.45,1.23-.69s.84-.49,1.28-.71A21.88,21.88,0,0,1,55.8,47.54Z"/><path class="cls-1" d="M86.92,68.45l5.31-28,9.45-.22-.09.36L102.72,42l-1.58,8.44,8.58-10.38,10.54-.24-.36.41,1.22,1.34-11.36,14L116,69.22l-10.13.24L104.69,68h-.28L99.73,58,97.54,69.65l-9,.21-1.21-1.42Zm5.87-27.28-5,26.53,8-.19,5-26.52ZM94,42.56l6-.15L95.34,67l-6,.14ZM99.68,56,105,67.3l8.72-.21-6-13,11-13.48-8.72.2L100.37,52.5Zm1.85-2.32L111,42.16l5.9-.14-9.81,12,5.7,12.5-7.17.17-4.64-9.94Z"/><path class="cls-1" d="M115.81,67.77l14.08-28.19,12.76-.29.06.45L143.83,41l3.5,27.46-9.68.23-1.21-1.43h-.32l-.91-8-3.5.08L127.12,69l-9.64.23-1.21-1.43Zm14.26-10.55,5.68-.14,1.08,9.48,8.45-.2L141.94,40l-11.67.27-3.91,7.77,8.76-.2,0,1.73-9.72.22L117,67l8.41-.2Zm1.27-15.53,10.18-.24,3.07,24.38-6.73.16L137,57.64l-.7-.8v-.32l-6.5.16-4.68,9.6-6.09.15,7.51-15.22,9.9-.23V48.43l-.7-.75,0-.37-7.32.17Z"/><path class="cls-1" d="M148.52,67l3.28-17.39h-.09l-1.17-1.43h-.41L154,39l21.71-.5a3.58,3.58,0,0,1,2.31.72,4.79,4.79,0,0,1,1.52,1.92l.43.53a5.47,5.47,0,0,1,1.12,2.2,6.11,6.11,0,0,1,.08,2.59l-4,21.32-9.09.21-1.22-1.42h-.36l3.28-17.39-7.82.18.57.67-3.4,18.17-9,.21L148.88,67Zm4.09-17.82-3.2,17.07,8-.18L160.6,49Zm1.17,1.38,6-.14-2.88,15.11-6,.15ZM170.92,47,167.4,65.85l8-.19,3.88-20.72a6.05,6.05,0,0,0,0-2.12,4.94,4.94,0,0,0-.7-1.82,4,4,0,0,0-1.31-1.29,3.06,3.06,0,0,0-1.73-.46l-21.13.49-3.27,7.76Zm1.33.56-.7-.85,0-.27L153,46.91l2.5-5.79,20.81-.48a2.94,2.94,0,0,1,1.6.46,4.51,4.51,0,0,1,.81,3.85l-3.8,20.18-6,.14Z"/><path class="cls-1" d="M179.5,66.29l3.28-17.39h-.09l-1.17-1.43h-.41L185,38.3l21.71-.5a3.58,3.58,0,0,1,2.31.72,4.9,4.9,0,0,1,1.53,1.92L211,41a5.47,5.47,0,0,1,1.12,2.2,6.11,6.11,0,0,1,.08,2.59l-.93,5a2.85,2.85,0,0,1-.7,1.27c-.38.45-.73.84-1.06,1.18a8.42,8.42,0,0,1,.62,1.24,2.2,2.2,0,0,1,.21,1.15l-1,5.07a7,7,0,0,1-.85,2.34,9.67,9.67,0,0,1-1.57,2.06,8.91,8.91,0,0,1-2,1.5,4.8,4.8,0,0,1-2.17.62l-21.67.5-1.22-1.43Zm22.08-18.24-18,.42-3.2,17.07,21.17-.49a4.22,4.22,0,0,0,1.94-.54,7.13,7.13,0,0,0,1.79-1.36,9.2,9.2,0,0,0,1.39-1.9,7,7,0,0,0,.79-2.11l.93-5.07a1.68,1.68,0,0,0-.23-1l-.55-1.15-.14-.22a3.39,3.39,0,0,0,.35-.42,12.57,12.57,0,0,0,.95-1.09,2.6,2.6,0,0,0,.55-.94l.93-5a6.05,6.05,0,0,0,0-2.12,4.94,4.94,0,0,0-.7-1.82A4,4,0,0,0,208.27,39a3.06,3.06,0,0,0-1.73-.46L185.41,39l-3.27,7.76,19.76-.46Zm1-2.29L184,46.19l2.5-5.79,20.81-.48a2.92,2.92,0,0,1,1.6.46,4.55,4.55,0,0,1,.82,3.85l-.93,5a2.92,2.92,0,0,1-.38.6c-.19.24-.4.49-.64.74l-.13.19-.18.18s0,.06-.13.1a2.24,2.24,0,0,1-.58.64l.57.85a7.66,7.66,0,0,1,.43.86,1,1,0,0,1,.1.68l-.92,5.06a7.93,7.93,0,0,1-.71,1.93A7,7,0,0,1,205,62.79,6.91,6.91,0,0,1,203.38,64a3.84,3.84,0,0,1-1.74.5L181.88,65l2.88-15.11,18-.42.49-2.55-.7-.85ZM190.15,59.05,201,58.79l.53-2.65-.7-.84,0-.28-11.08.26-.57,2.92h.27Zm-.31-1.41.33-1.82,10-.23-.32,1.82Z"/><path class="cls-1" d="M208.17,65.63l14.07-28.19,12.76-.3.06.45,1.12,1.29,3.5,27.47-9.67.22-1.22-1.42h-.32l-.91-8-3.5.08-4.59,9.61-9.64.22-1.21-1.43Zm14.25-10.56,5.68-.13,1.08,9.47,8.45-.2-3.34-26.33-11.67.27-3.91,7.78,8.76-.21,0,1.73-9.72.23-8.41,17.19,8.4-.19Zm1.27-15.53,10.18-.24,3.07,24.38-6.73.16-.87-8.34-.7-.8v-.32l-6.5.15-4.68,9.61-6.09.14,7.51-15.22,9.9-.23V46.28l-.7-.75,0-.37-7.32.17Z"/><path class="cls-1" d="M240.87,64.87l3.28-17.4h-.09l-1.17-1.42h-.41l3.88-9.18,21.71-.51a3.58,3.58,0,0,1,2.31.72A4.9,4.9,0,0,1,271.91,39l.42.53a5.51,5.51,0,0,1,1.12,2.21,6.05,6.05,0,0,1,.08,2.58l-4,21.32-9.09.21-1.22-1.42h-.36l3.28-17.4-7.82.18.57.67-3.4,18.17-9,.21-1.22-1.42ZM245,47l-3.2,17.08,8-.19L253,46.86Zm1.17,1.39,6-.14L249.29,63.4l-6,.14Zm17.14-3.54L259.75,63.7l8-.19,3.88-20.72a6,6,0,0,0,0-2.12,5,5,0,0,0-.7-1.82,4,4,0,0,0-1.31-1.29,3.14,3.14,0,0,0-1.73-.46l-21.13.49-3.27,7.76Zm1.33.56-.7-.85,0-.27-18.58.43,2.5-5.78,20.81-.49a2.85,2.85,0,0,1,1.6.47,4.53,4.53,0,0,1,.82,3.84L267.28,63l-6,.14Z"/><path class="cls-1" d="M106.17,100.69l-.37-.45q-.14-2-.36-3.81a22.38,22.38,0,0,0-.77-3.57,3.27,3.27,0,0,0-1.27-.15l-3.32.08-1.78,9.54-9,.21-1.21-1.43h-.37L91,83.73h-.09L89.7,82.3h-.41l3.88-9.18,21.71-.51a3.62,3.62,0,0,1,2.32.72,4.87,4.87,0,0,1,1.52,1.92l.42.54a5.47,5.47,0,0,1,1.12,2.2,6.1,6.1,0,0,1,.08,2.59l-1,5.39a8.68,8.68,0,0,1-.42,1.3,10.58,10.58,0,0,1-.76,1.5,11.71,11.71,0,0,1-1,1.38,3.93,3.93,0,0,1-1.18,1,21.91,21.91,0,0,1,.8,4.89,57.4,57.4,0,0,1,0,5.87l-9.18.21-1.26-1.42Zm0-4.66c.14,1.26.25,2.56.34,3.93l8.45-.2a37.41,37.41,0,0,0,0-5.61,20.76,20.76,0,0,0-1-4.91,2.28,2.28,0,0,0,1.21-.67,7.6,7.6,0,0,0,1.06-1.29,9.24,9.24,0,0,0,.8-1.52,8,8,0,0,0,.45-1.33l1-5.39a5.77,5.77,0,0,0,0-2.11,4.88,4.88,0,0,0-.7-1.83,4.18,4.18,0,0,0-1.3-1.28,3,3,0,0,0-1.74-.46l-21.13.49L90.32,81.6l19.76-.45-.32,1.73-18,.42-3.2,17.07,8-.18,1.78-9.55,3.86-.09c1.85,0,2.91.53,3.18,1.7A22.33,22.33,0,0,1,106.13,96ZM92.94,84.68l18-.42.48-2.56-.7-.84,0-.28L92.17,81l2.5-5.79,20.81-.48a2.92,2.92,0,0,1,1.6.46,4.51,4.51,0,0,1,.82,3.85l-1,5.38a5.33,5.33,0,0,1-.41,1.17,8.13,8.13,0,0,1-.85,1.41,7.52,7.52,0,0,1-1.18,1.21,2.83,2.83,0,0,1-1.33.62,20,20,0,0,1,1.12,5,39.36,39.36,0,0,1,.13,5.34l-6.77.15c-.09-1.06-.2-2.1-.33-3.15a20.24,20.24,0,0,0-.68-3.19,2.48,2.48,0,0,0-.48-.89l-.23-.27c-.43-1.3-1.61-1.92-3.55-1.87l-4.4.1L96.1,99.65l-6,.14Z"/><path class="cls-1" d="M133.28,72.2l-.08.36L134.32,74l-1.66,8.81H132l.51.67-3.39,18.17-9,.21L119,100.39h-.36l3.52-18.54h.68l-.28-.31h-.36l1.74-9.14ZM122.7,82.58l-3.19,17.07,7.9-.18,3.2-17.07ZM123.87,84l5.95-.14L127,98.93l-6,.14Zm.61-10.83L123,80.84l7.9-.18,1.46-7.72Zm1.17,1.38,5.95-.14-1.09,5.75-5.95.14Z"/><path class="cls-1" d="M133.13,81.29,137,72.11l21.72-.5a3.51,3.51,0,0,1,2.31.71,4.87,4.87,0,0,1,1.52,1.92l.42.54a5.23,5.23,0,0,1,1.12,2.2,5.94,5.94,0,0,1,.09,2.59L161.34,94.5a7.2,7.2,0,0,1-.85,2.34,9.93,9.93,0,0,1-1.57,2.06,9,9,0,0,1-2,1.5,4.62,4.62,0,0,1-2.16.61l-21.67.51-1.22-1.43h-.36l3.28-17.39h-.09l-1.17-1.43Zm4.3-8.46-3.27,7.76,19.76-.46-2.06,11.09-10,.23,1.74-9.36-8,.19-3.19,17.07,21.17-.49a4.38,4.38,0,0,0,1.94-.54A7.13,7.13,0,0,0,157.31,97a9.58,9.58,0,0,0,1.39-1.9,7.37,7.37,0,0,0,.79-2.11L162.28,78a6,6,0,0,0,0-2.11,5.05,5.05,0,0,0-.7-1.83,4.1,4.1,0,0,0-1.31-1.28,3,3,0,0,0-1.74-.46Zm-.66,10.83,6-.14L141.19,92h.28l.7.84L153,92.6l2.27-11.91-.7-.85,0-.27L136,80l2.5-5.79,20.8-.48a3,3,0,0,1,1.61.46,4.51,4.51,0,0,1,.81,3.85L158.94,93A7.57,7.57,0,0,1,157,96.6a6.91,6.91,0,0,1-1.61,1.22,3.89,3.89,0,0,1-1.74.49l-19.76.46Zm8.76-.52-1.41,7.53,7.13-.16,1.54-8.22-7.82.18Z"/><path class="cls-1" d="M165.69,82l-1.17-1.43h-.41L168,71.39l27-.63-.08.37,1.17,1.38-1.66,8.81-.68,0,.56.67-1.62,8.62-.73,0,.61.71-1.66,8.81-26.8.63-1.22-1.43h-.36L165.78,82Zm25.19,6.5L192.3,81l-25.71.6-3.2,17.07L189.1,98l1.46-7.71-17.72.41.33-1.82Zm-18.14-.12-.56,2.92h.27l.7.85,16.58-.38-1.09,5.75-23.76.55,2.87-15.11,23.76-.55-1,5.57Zm19.88-9.14,1.46-7.72-25.67.6-3.27,7.75Zm-23.13-5.74,23.8-.55-1.09,5.75L167,79.28Z"/><path class="cls-1" d="M211.7,98.24l-.38-.45q-.13-2-.36-3.81a22.1,22.1,0,0,0-.76-3.57,3,3,0,0,0-1.28-.15l-3.32.07-1.77,9.54-9,.21-1.22-1.42h-.36l3.27-17.4h-.09l-1.17-1.42h-.4l3.87-9.18,21.72-.51a3.58,3.58,0,0,1,2.31.72,4.87,4.87,0,0,1,1.52,1.92l.42.53a5.39,5.39,0,0,1,1.12,2.21,5.9,5.9,0,0,1,.09,2.58l-1,5.39a8.76,8.76,0,0,1-.42,1.31,9.11,9.11,0,0,1-.76,1.49,11.76,11.76,0,0,1-1,1.39,4.11,4.11,0,0,1-1.19,1,21.35,21.35,0,0,1,.8,4.89,57.2,57.2,0,0,1,0,5.86l-9.18.22-1.26-1.43Zm0-4.66c.13,1.25.25,2.56.34,3.92l8.45-.19a37.48,37.48,0,0,0,0-5.62,20.86,20.86,0,0,0-1-4.91,2.29,2.29,0,0,0,1.21-.66,7.23,7.23,0,0,0,1.06-1.3,9.68,9.68,0,0,0,.81-1.52A9.94,9.94,0,0,0,223,82l1-5.38a5.81,5.81,0,0,0,0-2.12,4.83,4.83,0,0,0-.7-1.82,4,4,0,0,0-1.3-1.29,3.15,3.15,0,0,0-1.74-.46l-21.12.49-3.28,7.76,19.77-.46-.33,1.74-18,.41L194.1,97.92l8-.19,1.78-9.54,3.86-.09c1.85,0,2.91.52,3.18,1.7A23,23,0,0,1,211.66,93.58Zm-13.2-11.35,18-.42.49-2.56-.7-.85,0-.27-18.57.43,2.5-5.78,20.8-.49a2.91,2.91,0,0,1,1.6.47,4.46,4.46,0,0,1,.82,3.84l-1,5.39a5.39,5.39,0,0,1-.4,1.17,7.24,7.24,0,0,1-.86,1.4A6.45,6.45,0,0,1,220,85.77a2.84,2.84,0,0,1-1.32.62,21.14,21.14,0,0,1,1.12,5,39.38,39.38,0,0,1,.12,5.34l-6.77.16c-.08-1.06-.19-2.11-.32-3.15a19,19,0,0,0-.69-3.19,2.77,2.77,0,0,0-.47-.9l-.24-.27c-.42-1.29-1.6-1.91-3.54-1.87l-4.41.11-1.82,9.54-6,.14Z"/><path class="cls-1" d="M224.19,98l1.74-9.18,4.27-.1,0,0a.23.23,0,0,1,0-.13l-.66-.8a4.56,4.56,0,0,1-1.16-1.2,7.28,7.28,0,0,1-.76-1.53,6.83,6.83,0,0,1-.38-1.61,5.19,5.19,0,0,1,0-1.48l1-5.38a8.67,8.67,0,0,1,.9-2.36A10.11,10.11,0,0,1,230.72,72a8.26,8.26,0,0,1,2.06-1.55,5.12,5.12,0,0,1,2.25-.62l21.9-.51-.08.37L258,71.07l-1.66,8.81L252,80a8.4,8.4,0,0,1,.7.76,5.26,5.26,0,0,1,.57.85l.56.67a5.75,5.75,0,0,1,1.16,2.33,5.36,5.36,0,0,1,.13,2.32l-.45,2.33h-.68l.56.67L254,92.34a7.2,7.2,0,0,1-.85,2.34,9.43,9.43,0,0,1-1.57,2.06,8.6,8.6,0,0,1-2,1.5,4.64,4.64,0,0,1-2.16.62l-21.67.5-1.22-1.42Zm22.06-1.24a4.28,4.28,0,0,0,1.92-.55A7.64,7.64,0,0,0,250,94.8a9.5,9.5,0,0,0,1.41-1.89,7.32,7.32,0,0,0,.79-2.12l.36-1.91-26,.6-1.46,7.72Zm-19.68-.09,1.09-5.75,24-.56-.08.5a6.87,6.87,0,0,1-.73,1.92,7,7,0,0,1-1.27,1.72A7.54,7.54,0,0,1,248,95.66a3.56,3.56,0,0,1-1.67.5Zm9.7-16.68.32-1.74,18-.42L256,70.07l-21.17.49a4.25,4.25,0,0,0-1.92.55,7.38,7.38,0,0,0-1.79,1.36,9.66,9.66,0,0,0-1.41,1.87,7,7,0,0,0-.79,2.13l-1,5.39a4.86,4.86,0,0,0,0,1.82,6,6,0,0,0,.68,1.87A5,5,0,0,0,229.91,87a2.7,2.7,0,0,0,1.76.57l21.17-.49.33-1.69a4.68,4.68,0,0,0,0-1.82,6.12,6.12,0,0,0-.75-1.89,4.68,4.68,0,0,0-1.45-1.49,3.72,3.72,0,0,0-2.17-.56Zm-6.06-2.5a6.24,6.24,0,0,1,.7-2,8,8,0,0,1,1.31-1.76,7,7,0,0,1,1.62-1.24,4,4,0,0,1,1.79-.5l19.62-.45-1.09,5.75-18,.42-.52,2.83h.27l.7.85,12.9-.3a3.56,3.56,0,0,1,2.11.59,4.88,4.88,0,0,1,.9,1.91,4.37,4.37,0,0,1,.09,1.88l-.2,1.14L231.8,87a2.66,2.66,0,0,1-2.21-1.13,4.72,4.72,0,0,1-.47-1.58,4.35,4.35,0,0,1,.08-1.5Z"/></svg>