<svg id="Слой_1" data-name="Слой 1" xmlns="http://www.w3.org/2000/svg" viewBox="0 0 283.46 141.73"><defs><style>.cls-1,.cls-2{fill:#db2878;}.cls-2{font-size:52.13px;font-family:StrongRunner, Strong Runner;}</style></defs><path class="cls-1" d="M81.89,42.75a33.69,33.69,0,0,0-21.81-8.48l-.2,31.16Z"/><path class="cls-1" d="M54.22,34.06C32.16,34.06,15.87,52,15.87,74a40,40,0,0,0,39.94,40C71.28,114,85.66,104.81,91,93L55,74V34.08Z"/><polygon class="cls-1" points="74.81 57.07 69.03 75.5 72.37 77.28 80.57 51.16 74.81 57.07"/><polygon class="cls-1" points="67.36 64.73 64.7 73.18 68.04 74.97 73.11 58.82 67.36 64.73"/><path class="cls-1" d="M91.05,53.64,82,82.45l3.33,1.79,8.09-25.78A37.85,37.85,0,0,0,91.05,53.64Z"/><path class="cls-1" d="M94.07,60.12,86.33,84.76l3.34,1.79,6.11-19.46A36.59,36.59,0,0,0,94.07,60.12Z"/><path class="cls-1" d="M96.11,71.74c0-.63,0-1.25,0-1.87l-5.4,17.21,2,1A35.67,35.67,0,0,0,96.11,71.74Z"/><path class="cls-1" d="M85.36,46.23l-3.09,3.18-8.92,28.4,3.34,1.79,10-31.93C86.27,47.17,85.83,46.69,85.36,46.23Z"/><polygon class="cls-1" points="61.04 71.22 63.72 72.65 65.65 66.48 61.04 71.22"/><path class="cls-1" d="M87.56,48.65,77.68,80.13,81,81.92l9.27-29.53A36.57,36.57,0,0,0,87.56,48.65Z"/><text class="cls-2" transform="translate(103.81 68.24)">COST OF</text><text class="cls-2" transform="translate(103.81 109.46)">DELAY</text></svg>