<svg id="Слой_1" data-name="Слой 1" xmlns="http://www.w3.org/2000/svg" xmlns:xlink="http://www.w3.org/1999/xlink" viewBox="0 0 878.14 500"><defs><style>.cls-1{fill:url(#Безымянный_градиент_27);}.cls-2{fill:#fff;}.cls-3{fill:#e9415f;}</style><linearGradient id="Безымянный_градиент_27" x1="469.42" y1="2004.02" x2="1715.59" y2="3268.34" gradientTransform="translate(-627.65 -2371.24)" gradientUnits="userSpaceOnUse"><stop offset="0.09" stop-color="#e9415f"/><stop offset="0.09" stop-color="#e7415f"/><stop offset="0.31" stop-color="#a13656"/><stop offset="0.5" stop-color="#6a2d4f"/><stop offset="0.67" stop-color="#42264a"/><stop offset="0.8" stop-color="#292247"/><stop offset="0.88" stop-color="#202146"/></linearGradient></defs><rect class="cls-1" x="180.28" y="-216.55" width="533.12" height="926.42" rx="14.68" transform="translate(693.5 -200.18) rotate(90)"/><path class="cls-2" d="M230.84,167.58a49,49,0,0,1,48.74,48.74v48.74H230.84a48.5,48.5,0,0,1-48.74-48.74,48.74,48.74,0,0,1,48.74-48.74ZM260,216.32a29.18,29.18,0,0,0-49.78-20.63,29.3,29.3,0,0,0,20.63,49.93H260Z"/><path class="cls-2" d="M537.89,152.75a12.82,12.82,0,0,1-18.36,0,12.54,12.54,0,0,1-3.87-9.18,12.73,12.73,0,0,1,3.87-9.33,13.19,13.19,0,0,1,18.36,0,12.73,12.73,0,0,1,3.87,9.33A12.54,12.54,0,0,1,537.89,152.75Zm-18.51,18.79v93.52H538V171.54Z"/><path class="cls-2" d="M593.32,124.78H612V265.06H593.32Z"/><path class="cls-2" d="M716.07,227.76H699a26.28,26.28,0,0,0,10,13.34,27.14,27.14,0,0,0,16.35,5.31h46.76v18.65H725.39a46.54,46.54,0,0,1-46.76-46.76,46.76,46.76,0,0,1,93.52,0v9.32H716.07Zm9.32-37.43A27.68,27.68,0,0,0,709,195.49,27.09,27.09,0,0,0,699,209h52.78a27.15,27.15,0,0,0-10-13.48A27.72,27.72,0,0,0,725.39,190.33Z"/><path class="cls-2" d="M565.58,319.94a47,47,0,0,1,46.76,46.76v46.75H593.55V366.7a28,28,0,0,0-56.08,0v46.75H518.83V366.7a46.76,46.76,0,0,1,46.75-46.76Z"/><path class="cls-2" d="M706.74,338.73a9.49,9.49,0,0,0-6.74,2.72,9.37,9.37,0,0,0,0,13.2,9.49,9.49,0,0,0,6.74,2.72H744A27.45,27.45,0,0,1,764,365.55a27,27,0,0,1,8.18,19.79A27.91,27.91,0,0,1,744,413.45h-65.4V394.81H744a9,9,0,0,0,6.6-2.73,9.46,9.46,0,0,0,2.73-6.74A9.3,9.3,0,0,0,744,376H706.74a27.46,27.46,0,0,1-19.94-8.18,27,27,0,0,1-8.17-19.79,27.9,27.9,0,0,1,28.11-28.11h65.41v18.79Z"/><path class="cls-2" d="M476.11,358.85h0a89,89,0,0,0-44.61-74.28c-2.21,6.8-15.63,12-31.87,12-13.46,0-32-6.66-32.19-14-.06-2,1.18-4.75,7-8.22l-34.53.51,1.55-69.48h.05l.14-6.62A131.87,131.87,0,0,0,291,91.67l.11-.11a128.09,128.09,0,0,0-175.17,13.53,131.56,131.56,0,0,0-34.62,94.23C83.8,269.18,139.93,324.46,208,325.87a13.44,13.44,0,0,1-.75-4.41c0-11.35,14.41-20.56,32.19-20.56s32.19,9.21,32.19,20.56a13.91,13.91,0,0,1-.19,2.24l27.84-1,1.52,42.66c1.75,49.08,42.4,87.42,90.81,85.63h0C440,449.17,477.85,407.93,476.11,358.85Zm-180-165-1.83,82.69L210,279.69c-48.41,1.79-89.06-36.55-90.81-85.63h0C117.45,145,155.27,103.73,203.68,102h0a86.14,86.14,0,0,1,45.83,11.17s0,.1-.07.16c2.27,1.22,4.49,2.54,6.64,4a89.59,89.59,0,0,1,9.26,7.34l.12-.23A89.2,89.2,0,0,1,296.12,193.89Zm128,201.4-26.82,8.52c-16.85,2.22-32.38-4.93-38.82-17.46-4.65-9-3.2-18.15-2.36-21.93l.67-5.44a29.84,29.84,0,0,1,.72-8.47c1.63-7.05,4.68-8.1,8.58-16.83,3.3-7.37,2.57-9.83,5.74-12.31,3.84-3,58.25,23.95,62.14,27.15Q429,371.91,424.09,395.29Z"/><path class="cls-2" d="M447.62,265.06a46.76,46.76,0,0,1-76.59,36,44.52,44.52,0,0,1-15.92-26.68h19.36a28,28,0,0,0,26.39,18.79,28.15,28.15,0,0,0,28-28.11v-9.33A46.65,46.65,0,0,1,354.1,218.3a46.77,46.77,0,0,1,46.76-46.76h46.76Zm-18.79-74.73h-28a27.89,27.89,0,0,0-19.79,47.76,28,28,0,0,0,47.76-19.79Z"/><path class="cls-2" d="M278.94,308.32a47,47,0,0,0-10.37-11.92,45.59,45.59,0,0,0-29.83-10.76c-1.66,0-3.28.08-4.88.23a42.1,42.1,0,0,0-12.76,2.77,43.59,43.59,0,0,0-15.49,10.46,45,45,0,0,0-13.62,33v93.52h18.64V378.34h37.18V359.4H210.63V332.09a28.78,28.78,0,0,1,.18-3.24H211a28.19,28.19,0,0,1,27.76-24.56,27.18,27.18,0,0,1,16.35,5.31,28.56,28.56,0,0,1,6.21,6.1,26,26,0,0,1,4,8.35l19.19-1A44.48,44.48,0,0,0,278.94,308.32Z"/><path class="cls-3" d="M399.19,416.76a48.67,48.67,0,0,1-48.41-48.41V319.94h48.41a48.16,48.16,0,0,1,48.42,48.41,48.41,48.41,0,0,1-48.42,48.41Zm-29-48.41a28.88,28.88,0,1,0,29-29.11h-29Z"/></svg>