<?xml version="1.0" encoding="utf-8"?>
<!-- Generator: Adobe Illustrator 26.0.3, SVG Export Plug-In . SVG Version: 6.00 Build 0)  -->
<svg version="1.1" id="Слой_1" xmlns="http://www.w3.org/2000/svg" xmlns:xlink="http://www.w3.org/1999/xlink" x="0px" y="0px"
	 viewBox="0 0 500 500" style="enable-background:new 0 0 500 500;" xml:space="preserve">
<style type="text/css">
	.st0{fill:url(#SVGID_1_);}
	.st1{fill:#FFFFFF;}
	.st2{fill:#351F44;}
</style>
<linearGradient id="SVGID_1_" gradientUnits="userSpaceOnUse" x1="1269.8197" y1="-1634.4003" x2="2174.3997" y2="-2552.1602" gradientTransform="matrix(6.123234e-17 1 1 -6.123234e-17 2330.2 -1462.37)">
	<stop  offset="9.000000e-02" style="stop-color:#E9415F"/>
	<stop  offset="9.000000e-02" style="stop-color:#E7415F"/>
	<stop  offset="0.31" style="stop-color:#A13656"/>
	<stop  offset="0.5" style="stop-color:#6A2D4F"/>
	<stop  offset="0.67" style="stop-color:#42264A"/>
	<stop  offset="0.8" style="stop-color:#292247"/>
	<stop  offset="0.88" style="stop-color:#202146"/>
</linearGradient>
<path class="st0" d="M516.8-5.2v503.8c0,8.1-6.6,14.7-14.7,14.7H-1.7c-8.1,0-14.7-6.6-14.7-14.7V-5.2c0-8.1,6.6-14.7,14.7-14.7
	h503.8C510.2-19.9,516.8-13.3,516.8-5.2z"/>
<path class="st1" d="M372.4,267.8l-50,1.9l1.7-76.6h0.1l0.2-7.3c1.1-46-19.6-89.8-55.9-118.1l0.1-0.1
	C210.3,20.6,125.7,27.1,75.4,82.4C49.4,110.6,35.7,148,37.2,186.3c2.8,79.8,69.2,142.4,147.9,139.5l7.2-0.3v0l85.2-3.1l1.7,47
	c1.9,54.1,46.8,96.4,100.1,94.4l0,0c53.4-2,95.1-47.4,93.1-101.6l0,0C470.6,308.1,425.7,265.8,372.4,267.8z M179.1,274.9
	c-53.4,2-98.2-40.3-100.1-94.4l0,0c-2-54.1,39.8-99.6,93.2-101.6l0,0c17.7-0.7,35.2,3.6,50.5,12.3c0,0.1-0.1,0.1-0.1,0.2
	c2.5,1.3,5,2.8,7.3,4.4c3.6,2.5,7,5.2,10.2,8.1l0.1-0.2c22.1,19.2,34.5,47.4,33.8,76.7l-2,91.2L179.1,274.9z M351.2,334.4
	c3.6-8.1,2.8-10.8,6.3-13.6c4.2-3.3,64.2,26.4,68.5,29.9l-10.9,51.6l-42.1,1.6c-12,2.8-24.1-1.9-30.2-11.4
	c-6.9-10.7-3.1-22.6-2.6-24.2l0.7-6c-0.2-3.1,0.1-6.3,0.8-9.3C343.5,345.2,346.9,344.1,351.2,334.4z"/>
<path class="st1" d="M202.1,151.3c29.6,0.1,53.6,24.1,53.7,53.7v53.7h-53.7c-29.5,0.1-53.6-23.7-53.7-53.2c0-0.2,0-0.3,0-0.5
	C148.3,175.3,172.4,151.3,202.1,151.3L202.1,151.3z M234.2,205c0-17.8-14.4-32.2-32.2-32.1c-8.5,0-16.7,3.4-22.7,9.4
	c-12.6,12.3-12.8,32.5-0.5,45c0.2,0.2,0.3,0.3,0.5,0.5c5.9,6.2,14.2,9.7,22.7,9.6h32.2L234.2,205z"/>
<path class="st2" d="M386.7,424c-28.8-0.2-52.2-23.5-52.3-52.4v-52.3h52.3c28.8-0.1,52.2,23.1,52.3,51.9c0,0.2,0,0.3,0,0.5
	C439,400.5,415.6,424,386.7,424z M355.3,371.6c0.1,17.2,14.2,31.1,31.5,31c17.2-0.1,31.1-14.2,31-31.5c-0.1-17.1-14-30.9-31.1-31
	h-31.3V371.6z"/>
</svg>
