<svg id="Слой_1" data-name="Слой 1" xmlns="http://www.w3.org/2000/svg" viewBox="0 0 283.46 141.73"><defs><style>.cls-1,.cls-2{fill:#db2878;}.cls-2{font-size:40.73px;font-family:FastenRegular, Fasten;}.cls-3{letter-spacing:0.02em;}.cls-4{letter-spacing:0em;}</style></defs><path class="cls-1" d="M7.83,78.84H22.94a28.27,28.27,0,0,0,1.93,7.65A25.63,25.63,0,0,0,30,94.24c.17.17.33.34.49.52a2.37,2.37,0,0,1-.07,3.43C28,100.6,25.61,103,23.2,105.36a2.36,2.36,0,0,1-3.54,0A40.34,40.34,0,0,1,8.31,83.17c-.17-1-.32-2-.48-3Z"/><path class="cls-1" d="M7.83,72.78c.27-1.62.48-3.25.82-4.85A40.12,40.12,0,0,1,18,49.37L28.7,60.1A25.69,25.69,0,0,0,23,74.05H7.83Z"/><path class="cls-1" d="M41.18,76.49a7.48,7.48,0,0,1,4.74-7,7.31,7.31,0,0,1,8.19,1.83,71.42,71.42,0,0,1,5,6.49c3.86,5.66,7.61,11.4,11.4,17.11a2.43,2.43,0,0,1-.17,3.21,2.4,2.4,0,0,1-3.14.27Q56.41,91.1,45.65,83.76a17.06,17.06,0,0,1-2.41-2.08A7.08,7.08,0,0,1,41.18,76.49Z"/><path class="cls-1" d="M65.07,56.49a25.65,25.65,0,0,0-13.94-5.75V35.6A40.58,40.58,0,0,1,75.78,45.78C72.19,49.36,68.65,52.9,65.07,56.49Z"/><path class="cls-1" d="M46.26,35.59V50.74a25.82,25.82,0,0,0-14,5.79L21.55,45.82A40.78,40.78,0,0,1,46.26,35.59Z"/><path class="cls-1" d="M68.65,60.07,79.34,49.33A40.73,40.73,0,0,1,89.56,74H74.42A25.85,25.85,0,0,0,68.65,60.07Z"/><path class="cls-1" d="M71.64,103a7.37,7.37,0,0,0,4.1-5.63,6.92,6.92,0,0,0-1.06-4.71c-.83-1.36-1.72-2.68-2.56-4a1.09,1.09,0,0,1-.16-.84,27.1,27.1,0,0,0,2.45-8.87H89.58c-.14,1.27-.21,2.53-.41,3.77a40.54,40.54,0,0,1-8.76,19.68c-.86,1-1.78,2-2.72,3a2.37,2.37,0,0,1-3.49.06Z"/><text class="cls-2" transform="translate(96.47 66.72)">c<tspan class="cls-3" x="36.25" y="0">r</tspan><tspan class="cls-4" x="72.49" y="0">azy</tspan></text><text class="cls-2" transform="translate(96.47 103.72)">limits</text></svg>