<svg id="Слой_1" data-name="Слой 1" xmlns="http://www.w3.org/2000/svg" viewBox="0 0 1174.38 734.43"><defs><style>.cls-1{fill:#fff;}.cls-2{fill:#69c;}.cls-3,.cls-4{fill:#424242;}.cls-4{font-size:285.93px;font-family:AndThenItEnds, And Then It Ends;letter-spacing:0.07em;}</style></defs><rect class="cls-1" x="-45.67" y="-52.34" width="1257.53" height="809.04"/><path class="cls-1" d="M903.79,567.81l47.05-41.2,111.84,123.91-86.5,0Z"/><path class="cls-1" d="M876.59,544.77,930,525.29l111.84,123.92-86.5-.05Z"/><path class="cls-2" d="M356,459.11l-1.8,5.59c-.33,1.22-1,3.78-1.74,7-18.64,83,34.77,144.54,37.93,145.88,2.76,1.17,3.82.29,3.82.29l.11-.09,3.65-3.47,44.82-43.11a2.7,2.7,0,0,0,.26-3.63,96.4,96.4,0,0,1-18.71-79.37l10,2.86a2.64,2.64,0,0,0,2.85-4.08l-33.45-45.63a2.66,2.66,0,0,0-2.93-1,88,88,0,0,1-35.24,3.34c-1.12-.13-2.21-.28-3.3-.45"/><path class="cls-2" d="M467,421.85c1.43,3.06-17.52,8.39-29.57,26.4-9.27,13.85-7.25,32.22-16,60.35-5,16.18-5.28,25.38-12.61,28.2-4.66,1.79-5.85-1.42-21.63-5.14,0,0-12.18-2.86-33.47-9.49-1.27-.4-4.52-1.42-4.86-3.5,0,0,0-.13,0-.25-1.3-16.92,3.58-38,3.58-38s6.11-29,12.4-45.23c.64-1.66.78-1.71,1.88-4.51,2.34-5.92,2.77-8.3,4.69-9a4.58,4.58,0,0,1,3.38.37c7.65,3.32,40.72,6.53,59.17,5.45C454.32,426.29,465.77,419.32,467,421.85Z"/><path class="cls-2" d="M575.53,293.72l1.77-5.6c.32-1.22,1-3.79,1.68-7C597.05,198,543.21,136.78,540,135.47c-2.76-1.15-3.82-.27-3.82-.27l-.11.1-3.62,3.49Q510.23,160.51,488,182.21a2.7,2.7,0,0,0-.23,3.63A96.39,96.39,0,0,1,507,265.09l-10-2.8a2.63,2.63,0,0,0-2.82,4.1L528,311.79a2.63,2.63,0,0,0,2.93.93,88.07,88.07,0,0,1,35.22-3.58c1.12.13,2.22.27,3.3.43"/><path class="cls-2" d="M503,214.3c12.92,30.88.85,45.33-2.33,82.87C499.19,314,496,322.66,501.7,328c3.65,3.41,6,.88,22,3.38,0,0,12.36,1.92,34.58,3.79,1.33.11,4.73.38,5.82-1.42l.12-.22a169.51,169.51,0,0,0,2.7-153.93,2.73,2.73,0,0,0-3.6-1.34l-.12.06-7.88,4.34-51.18,28.15A2.75,2.75,0,0,0,503,214.3Z"/><path class="cls-2" d="M443.78,346.2a2.8,2.8,0,0,0-3.27-2,100.74,100.74,0,0,1-86.59-22.47,2.8,2.8,0,0,0-4,.17h0L301.6,372.43a2.82,2.82,0,0,0,.16,4,177,177,0,0,0,159.5,40.82,2.84,2.84,0,0,0,2-3.44q-.93-3.36-1.89-6.69Z"/><path class="cls-2" d="M426.92,91.61c1.1.1,2.2.23,3.31.37a1.75,1.75,0,0,0,1.12-.2,1.56,1.56,0,0,0,.65-1,1.48,1.48,0,0,0-.31-1.09,1.38,1.38,0,0,0-.93-.65c-1.11-.14-2.21-.27-3.31-.38a1.26,1.26,0,0,0-.58,0,1,1,0,0,0-.55.15,1.48,1.48,0,0,0-.65.93,1.51,1.51,0,0,0,.2,1.12,1.42,1.42,0,0,0,.95.65Z"/><path class="cls-2" d="M390.2,95.47A77.65,77.65,0,0,1,418,91.18c1.91,0,1.73-3-.18-3a81,81,0,0,0-28.57,4.46c-1.71.66-.9,3.54.94,2.84Z"/><path class="cls-2" d="M550.14,334.88c-.69.86-1.42,1.71-2.13,2.5a1.62,1.62,0,0,0-.43,1.06,1.47,1.47,0,0,0,.44,1.06,1.52,1.52,0,0,0,1.05.42,1.45,1.45,0,0,0,1.06-.43c.72-.83,1.42-1.7,2.13-2.51a1.27,1.27,0,0,0,.32-.49,1.11,1.11,0,0,0,.1-.57,1.43,1.43,0,0,0-.43-1.05,1.55,1.55,0,0,0-1.06-.45A1.48,1.48,0,0,0,550.14,334.88Z"/><path class="cls-2" d="M343.46,318.54a2.7,2.7,0,0,0,.12-3.68,96.72,96.72,0,0,1-22.19-82.93,2.68,2.68,0,0,0-2-3.23h0q-32.55-8.24-65-16.48a2.71,2.71,0,0,0-3.24,2,169.84,169.84,0,0,0,41.35,152.5,2.71,2.71,0,0,0,3.82.06c1.58-1.57,3.14-3.16,4.7-4.74Z"/><path class="cls-2" d="M399.58,155.9a96.5,96.5,0,0,1,79.84,22.3,2.71,2.71,0,0,0,3.75-.16l47.1-46.57a4.23,4.23,0,0,0,0-6l-.18-.17A169.51,169.51,0,0,0,381.41,85.46a2.72,2.72,0,0,0-2.17,3.16l0,.14,2.3,8.7,14.95,56.46A2.75,2.75,0,0,0,399.58,155.9Z"/><path class="cls-2" d="M371.29,87.08l-5.7,1.42c-1.2.36-3.74,1.14-6.88,2.24-80.33,28-104.36,105.88-103.82,109.27.46,3,1.77,3.4,1.77,3.4l.14,0,4.87,1.26L322,220a2.7,2.7,0,0,0,3.22-1.69,96.4,96.4,0,0,1,57.51-57.83l2.83,10a2.64,2.64,0,0,0,3.27,1.79,2.6,2.6,0,0,0,1.7-1.52l21.07-52.51a2.66,2.66,0,0,0-.73-3,88,88,0,0,1-21.45-28.16c-.48-1-.93-2-1.36-3"/><circle class="cls-2" cx="293.37" cy="130.4" r="29.85" transform="matrix(0.8, -0.6, 0.6, 0.8, -19.9, 200.66)"/><circle class="cls-2" cx="462.41" cy="93.21" r="29.85" transform="translate(35.62 294.12) rotate(-36.61)"/><path class="cls-2" d="M410.33,411.83c-1.11-.07-2.22-.15-3.31-.24a1.62,1.62,0,0,0-1.09.31,1.5,1.5,0,0,0-.62,1,1.56,1.56,0,0,0,.31,1.1,1.53,1.53,0,0,0,1,.61c1.09.09,2.2.18,3.3.23a1.14,1.14,0,0,0,.58,0,1.17,1.17,0,0,0,.55-.16,1.5,1.5,0,0,0,.62-1,1.52,1.52,0,0,0-.31-1.09,1.42,1.42,0,0,0-1-.6Z"/><path class="cls-2" d="M273.77,326c-.51-1-1-2-1.47-3a1.7,1.7,0,0,0-.79-.84,1.52,1.52,0,0,0-1.13,0,1.38,1.38,0,0,0-.83.77,1.4,1.4,0,0,0,0,1.15c.47,1,1,2,1.47,3a1,1,0,0,0,.31.48,1.18,1.18,0,0,0,.46.34,1.48,1.48,0,0,0,1.15,0,1.5,1.5,0,0,0,.87-1.92Z"/><path class="cls-2" d="M296.83,354.85a77.83,77.83,0,0,1-18.63-21.14c-1-1.61-3.45.14-2.4,1.75a80,80,0,0,0,19.14,21.68c1.54,1.14,3.47-1.19,1.88-2.32Z"/><path class="cls-2" d="M280.43,165.6c.66-.89,1.39-1.79,2-2.63a1.75,1.75,0,0,0,.4-1.07,1.52,1.52,0,0,0-.48-1,1.48,1.48,0,0,0-2.1.06c-.69.88-1.4,1.77-2,2.65a1,1,0,0,0-.3.5,1.11,1.11,0,0,0-.1.57,1.49,1.49,0,0,0,.46,1,1.44,1.44,0,0,0,1.08.39,1.42,1.42,0,0,0,1-.46Z"/><path class="cls-2" d="M264.74,199a77.64,77.64,0,0,1,10.72-26c1-1.66-1.66-3-2.65-1.4a79.94,79.94,0,0,0-11,26.75C261.47,200.24,264.45,200.9,264.74,199Z"/><path class="cls-2" d="M488.49,412.84c44.33.47,87.65,21.21,86.85,31.45-.09,1.18-.73,1.71-.47,2,2.44,2.86,49-53.14,54.29-57.75.19-.17,2-1.72,1.67-3.06a4.68,4.68,0,0,0-1.17-2l-.2-.19c-46.32-40.43-111.6-57.09-175.59-44.83a3.19,3.19,0,0,0-2.76,3.5l0,.15c.77,3.22,1.54,6.42,2.3,9.64l18.06,61.82A145.55,145.55,0,0,1,488.49,412.84Z"/><path class="cls-2" d="M589.37,445.5A96.51,96.51,0,0,1,609.3,526a2.71,2.71,0,0,0,2,3.18L675,547.19a4.23,4.23,0,0,0,5.22-2.93l.06-.24a169.5,169.5,0,0,0-38.6-149,2.72,2.72,0,0,0-3.82-.33l-.1.09L631.35,401l-41.77,40.83A2.75,2.75,0,0,0,589.37,445.5Z"/><path class="cls-2" d="M603.06,536.85a96.52,96.52,0,0,1-60,57.22,2.71,2.71,0,0,0-1.78,3.3q8,32.11,15.94,64.3a4.23,4.23,0,0,0,5.13,3.08l.24-.07A169.48,169.48,0,0,0,672.88,557.25a2.7,2.7,0,0,0-1.61-3.48l-.13,0-8.65-2.47-56.17-16A2.75,2.75,0,0,0,603.06,536.85Z"/><circle class="cls-2" cx="623.61" cy="626.52" r="29.85"/><path class="cls-2" d="M644.4,595.54c-.67.88-1.35,1.75-2.06,2.62a1.72,1.72,0,0,0-.42,1.06,1.62,1.62,0,0,0,.47,1,1.47,1.47,0,0,0,1.09.31,1.42,1.42,0,0,0,1-.45c.71-.86,1.39-1.74,2.06-2.61a1.32,1.32,0,0,0,.3-.51.94.94,0,0,0,.15-.54,1.48,1.48,0,0,0-.44-1.05,1.5,1.5,0,0,0-1.06-.41,1.4,1.4,0,0,0-1,.46Z"/><path class="cls-2" d="M660.44,562.29a77.66,77.66,0,0,1-11,25.91c-1,1.61,1.61,3,2.63,1.41A80.8,80.8,0,0,0,663.32,563c.34-1.8-2.53-2.62-2.91-.69Z"/><path class="cls-2" d="M534.1,599.54a2.71,2.71,0,0,0-3.07-2,96.85,96.85,0,0,1-79-21.59,2.68,2.68,0,0,0-3.62.13l-50.46,48.71-.87.85a169.86,169.86,0,0,0,151.14,43.23,2.7,2.7,0,0,0,2-3.23c-1.2-5.18-2.39-10.36-3.67-15.51Z"/><circle class="cls-2" cx="469.79" cy="663.89" r="29.85" transform="translate(-197.61 199.1) rotate(-19.86)"/><path class="cls-2" d="M503.32,662.21c-1.09-.18-2.18-.37-3.28-.59a1.58,1.58,0,0,0-1.13.13,1.5,1.5,0,0,0-.58,2h0a1.39,1.39,0,0,0,.88.71,26.55,26.55,0,0,0,3.28.59,1.58,1.58,0,0,0,1.13-.13,1.54,1.54,0,0,0,.71-.89,1.56,1.56,0,0,0-.14-1.14A1.48,1.48,0,0,0,503.32,662.21Z"/><path class="cls-2" d="M540.21,660.9a77.32,77.32,0,0,1-28,2.35c-1.87-.12-1.94,2.86,0,3A80.51,80.51,0,0,0,541,663.8C542.78,663.25,542.07,660.31,540.21,660.9Z"/><path class="cls-2" d="M380.85,412.9c.64-.91,1.3-1.81,1.95-2.69a1.62,1.62,0,0,0,.31-1.09,1.58,1.58,0,0,0-.5-1,1.55,1.55,0,0,0-1.1-.31,1.58,1.58,0,0,0-1,.5c-.65.88-1.3,1.78-1.93,2.69a1.13,1.13,0,0,0-.29.51,1.17,1.17,0,0,0-.16.55,1.53,1.53,0,0,0,.51,1,1.49,1.49,0,0,0,1.09.32,1.42,1.42,0,0,0,1-.51Z"/><path class="cls-2" d="M658.59,432c.41,1,.78,2.13,1.17,3.12a1.67,1.67,0,0,0,.69.9,1.53,1.53,0,0,0,1.15.14,1.49,1.49,0,0,0,1-1.82c-.39-1-.77-2.12-1.19-3.12a1.68,1.68,0,0,0-.7-.9,1.46,1.46,0,0,0-1.12-.15,1.49,1.49,0,0,0-.9.71,1.39,1.39,0,0,0-.15,1.12Z"/><path class="cls-3" d="M325.89,502.15v97.73H284V460.26q0-40.49,28.62-69.11t69.11-28.62v41.89a55.75,55.75,0,0,0-55.84,55.84h55.84v41.89Z"/><path class="cls-3" d="M611.74,599.88H569.86V582.57q-24.3,17.31-55.85,17.31-40.49,0-69.11-28.62t-28.62-69.11q0-40.48,28.62-69.11T514,404.42q40.49,0,69.11,28.62t28.62,69.11Zm-58.22-58.22A56,56,0,1,0,514,558,53.83,53.83,0,0,0,553.52,541.66Z"/><text class="cls-4" transform="translate(87.11 343.5)">agile</text><path class="cls-1" d="M972.88,355.65l-47,41.21L814,273l86.5,0Z"/><path class="cls-3" d="M688.17,502.15v97.73H646.29V502.15q0-40.48,28.62-69.11T744,404.42q40.49,0,69.11,28.62t28.62,69.11v97.73H799.87V502.15a55.85,55.85,0,1,0-111.7,0Z"/><path class="cls-3" d="M878.39,523.09a102.85,102.85,0,0,1-2.09-20.94q0-40.48,28.62-69.11T974,404.42q40.49,0,69.11,28.62a96.31,96.31,0,0,1,22.48,34.2h-47.89c-1.31-1.58-2.7-3.11-4.19-4.6a55.94,55.94,0,0,0-79,0,54.59,54.59,0,0,0-12.43,18.57h147.58a102.85,102.85,0,0,1,2.09,20.94q0,40.49-28.62,69.11T974,599.88q-40.49,0-69.11-28.62a96.26,96.26,0,0,1-22.48-34.21h47.89a62.27,62.27,0,0,0,4.19,4.61,56,56,0,0,0,79,0A54.69,54.69,0,0,0,1026,523.09Z"/><path class="cls-1" d="M803.67,611.27l47.05,41.2L962.56,528.56l-86.51.05Z"/><path class="cls-1" d="M1149.63,396.7l-47.05-41.2L990.74,479.41l86.5-.05Z"/></svg>