<svg id="Слой_1" data-name="Слой 1" xmlns="http://www.w3.org/2000/svg" viewBox="0 0 141.73 141.73"><defs><style>.cls-1{opacity:0.18;}.cls-2{fill:#fff;}.cls-3{fill:#db2778;}.cls-4{fill:#c90065;}</style></defs><g id="Слой_1-2" data-name="Слой 1"><g class="cls-1"><rect x="31.2" y="7.9" width="616.95" height="331.67"/><path d="M57.5,47.81h45.21V64a.32.32,0,0,1,0,.27h-.17a12.84,12.84,0,0,0-3.89-.6h0A12.93,12.93,0,0,0,97,89.47h1.42a12.89,12.89,0,0,0,4.09-.58h.2a.26.26,0,0,1,0,.27v16.21H86.53a3.38,3.38,0,0,0-2.7,1.35,3.57,3.57,0,0,0-.67,1.89,3.16,3.16,0,0,0,.17,1.18,11.29,11.29,0,0,1,.44,3.11V114a9.94,9.94,0,0,1-8.68,8.54,9.68,9.68,0,0,1-7.7-2.26A9.81,9.81,0,0,1,64,112.9a9.43,9.43,0,0,1,.43-2.94,3.63,3.63,0,0,0,.17-1.18,3.37,3.37,0,0,0-3.37-3.38H45V60.33A12.55,12.55,0,0,1,57.5,47.81ZM147,105.37a.42.42,0,0,0,.31,0h16.2v-45A12.55,12.55,0,0,0,151,47.81H105.78V64a3.38,3.38,0,0,1-1.39,2.74,3.09,3.09,0,0,1-1.85.64,3.4,3.4,0,0,1-1.19,0A9.36,9.36,0,0,0,98.42,67a9.93,9.93,0,0,0-7.36,3.37A9.69,9.69,0,0,0,88.63,78a9.85,9.85,0,0,0,8.54,8.68h1.08a8.66,8.66,0,0,0,3.07-.44,3.57,3.57,0,0,1,1.22,0,3.31,3.31,0,0,1,3.24,3.38v16.17H122a.42.42,0,0,0,.27,0h0a.33.33,0,0,0,0-.24,12.51,12.51,0,0,1-.51-5.47,13.75,13.75,0,0,1,1.28-4.19,13,13,0,0,1,24,9.63A.25.25,0,0,0,147,105.37Zm16.55,48.44V108.64H147.3a3.38,3.38,0,0,1-3.53-3.21,3.62,3.62,0,0,1,.16-1.18,9.89,9.89,0,0,0-18.58-6.79,9.41,9.41,0,0,0-.56,2.51,9.13,9.13,0,0,0,.37,4.18,3.36,3.36,0,0,1-.31,2.7l-.23.41a3.37,3.37,0,0,1-2.74,1.38h-16.2v16.17a.21.21,0,0,0,0,.24.32.32,0,0,0,.33,0,12.94,12.94,0,0,1,16.19,8.52,13.44,13.44,0,0,1,.49,2.35,8.42,8.42,0,0,1,0,1.42,13.15,13.15,0,0,1-3.37,8.71,12.87,12.87,0,0,1-13.51,3.68.36.36,0,0,0-.43.3s0,0,0,0v16.2h45.68A12.56,12.56,0,0,0,163.58,153.81ZM45,153.81A12.53,12.53,0,0,0,57.5,166.34h45.24V150h0A3.38,3.38,0,0,1,106,146.5a3.62,3.62,0,0,1,1.18.16,9.66,9.66,0,0,0,3,.47,10.12,10.12,0,0,0,7.36-3.38A9.92,9.92,0,0,0,120,137v-1a9.89,9.89,0,0,0-8.71-8.28,10.24,10.24,0,0,0-4.19.38,3.41,3.41,0,0,1-4.42-3.21h0V108.64H86.5a.32.32,0,0,0-.27,0,.26.26,0,0,0,0,.21h0a12.82,12.82,0,0,1,.57,4.08,8.78,8.78,0,0,1,0,1.45,13,13,0,0,1-11.37,11.21H74A12.93,12.93,0,0,1,60.94,112.9h0a13.55,13.55,0,0,1,.58-3.85h0a.32.32,0,0,0-.27,0H45Z"/><path d="M102.74,166.37V150h0A3.38,3.38,0,0,1,106,146.5a3.62,3.62,0,0,1,1.18.16,9.66,9.66,0,0,0,3,.47,10.12,10.12,0,0,0,7.36-3.38A9.92,9.92,0,0,0,120,137v-1a9.89,9.89,0,0,0-8.71-8.28,10.24,10.24,0,0,0-4.19.38,3.38,3.38,0,0,1-4.24-2.19,1,1,0,0,1,0-.14,185.25,185.25,0,0,1-57.9,21.13v7a12.51,12.51,0,0,0,12.52,12.52Z"/><path d="M144.57,107.26a3.37,3.37,0,0,1-.51-3,10.11,10.11,0,0,0-2.83-10.33l-.81-.64A130.23,130.23,0,0,1,105.78,124v.84a.25.25,0,0,0,0,.24.34.34,0,0,0,.34,0,12.93,12.93,0,0,1,16.18,8.52,12.59,12.59,0,0,1,.49,2.35,8.42,8.42,0,0,1,0,1.42,13.15,13.15,0,0,1-3.37,8.71,12.87,12.87,0,0,1-13.51,3.68.36.36,0,0,0-.43.3s0,0,0,0v16.2h45.58a12.56,12.56,0,0,0,12.53-12.52V108.64H147.3A3.35,3.35,0,0,1,144.57,107.26Z"/></g><rect class="cls-2" x="-2.56" y="-25.86" width="616.95" height="331.67"/><path class="cls-3" d="M23.74,14h45.2V30.28a.26.26,0,0,1,0,.27h-.16a12.54,12.54,0,0,0-3.89-.6h0a12.93,12.93,0,0,0-1.62,25.76h1.42a13.22,13.22,0,0,0,4.09-.58H69a.26.26,0,0,1,0,.27V71.61H52.77A3.38,3.38,0,0,0,50.07,73a3.57,3.57,0,0,0-.67,1.89A3.16,3.16,0,0,0,49.57,76,10.86,10.86,0,0,1,50,79.14v1.08a9.92,9.92,0,0,1-8.67,8.54,9.68,9.68,0,0,1-7.7-2.26,9.79,9.79,0,0,1-2.94-10.3A3.63,3.63,0,0,0,30.86,75a3.37,3.37,0,0,0-3.37-3.38H11.21V26.57A12.57,12.57,0,0,1,23.74,14Zm89.53,57.57a.41.41,0,0,0,.31.17h16.2V26.57A12.56,12.56,0,0,0,117.26,14H72V30.28A3.41,3.41,0,0,1,70.63,33a3.09,3.09,0,0,1-1.85.64,3.4,3.4,0,0,1-1.19,0,9.41,9.41,0,0,0-2.93-.47,9.88,9.88,0,0,0-7.36,3.37,9.69,9.69,0,0,0-2.43,7.7,9.85,9.85,0,0,0,8.54,8.68h1.08a8.66,8.66,0,0,0,3.07-.44,3.57,3.57,0,0,1,1.22,0,3.41,3.41,0,0,1,1.89.64A3.37,3.37,0,0,1,72,55.87V72.05H88.26a.42.42,0,0,0,.27,0h0a.33.33,0,0,0,0-.24A12.37,12.37,0,0,1,88,66.34a13.66,13.66,0,0,1,1.28-4.19,13,13,0,0,1,24,9.63A.25.25,0,0,0,113.27,71.61Zm16.55,48.44V74.88H113.54A3.38,3.38,0,0,1,110,71.67a3.62,3.62,0,0,1,.16-1.18A9.9,9.9,0,0,0,91.58,63.7,10.28,10.28,0,0,0,91,66.2a9.16,9.16,0,0,0,.38,4.19,3.37,3.37,0,0,1-.31,2.7l-.23.41a3.4,3.4,0,0,1-2.74,1.38H71.92V91.05a.21.21,0,0,0,0,.24.32.32,0,0,0,.33,0,12.93,12.93,0,0,1,16.18,8.52,12.44,12.44,0,0,1,.5,2.35,11.21,11.21,0,0,1,0,1.42,13.11,13.11,0,0,1-3.38,8.71,12.93,12.93,0,0,1-9.62,4.29,12.74,12.74,0,0,1-3.88-.61.36.36,0,0,0-.43.3s0,0,0,0v16.2h45.68A12.57,12.57,0,0,0,129.82,120.05Zm-118.61,0a12.53,12.53,0,0,0,12.53,12.53H69V116.27h0a3.38,3.38,0,0,1,3.21-3.53,3.62,3.62,0,0,1,1.18.16,9.66,9.66,0,0,0,3,.47A10.14,10.14,0,0,0,83.7,110a9.92,9.92,0,0,0,2.53-6.75v-1a9.9,9.9,0,0,0-8.71-8.27,10.41,10.41,0,0,0-4.19.37,3.39,3.39,0,0,1-4.42-3.2h0V74.88H52.74a.32.32,0,0,0-.27,0,.23.23,0,0,0,0,.2h0A12.92,12.92,0,0,1,53,79.17a8.78,8.78,0,0,1,0,1.45A13,13,0,0,1,41.67,91.83H40.25A12.93,12.93,0,0,1,27.18,79.14h0a13.55,13.55,0,0,1,.58-3.85h0a.26.26,0,0,0-.27,0H11.21Z"/><path class="cls-4" d="M69,132.61V116.27h0a3.38,3.38,0,0,1,3.21-3.53,3.62,3.62,0,0,1,1.18.16,9.66,9.66,0,0,0,3,.47A10.14,10.14,0,0,0,83.7,110a9.92,9.92,0,0,0,2.53-6.75v-1a9.9,9.9,0,0,0-8.71-8.27,10.41,10.41,0,0,0-4.19.37,3.37,3.37,0,0,1-4.24-2.18.83.83,0,0,1,0-.15A185.09,185.09,0,0,1,11.21,113.1v7a12.52,12.52,0,0,0,12.53,12.52Z"/><path class="cls-4" d="M110.81,73.5a3.37,3.37,0,0,1-.51-3,10.15,10.15,0,0,0-2.83-10.33l-.81-.64A130.23,130.23,0,0,1,72,90.21v.84a.21.21,0,0,0,0,.24.32.32,0,0,0,.33,0,12.94,12.94,0,0,1,16.19,8.52,13.25,13.25,0,0,1,.49,2.35,8.42,8.42,0,0,1,0,1.42,13.15,13.15,0,0,1-3.37,8.71A12.87,12.87,0,0,1,72.15,116a.36.36,0,0,0-.43.3s0,0,0,0v16.2h45.58A12.56,12.56,0,0,0,129.82,120V74.88H113.54A3.38,3.38,0,0,1,110.81,73.5Z"/><path class="cls-4" d="M109.53,57.83a12.85,12.85,0,0,1,3.71,13.51.32.32,0,0,0,0,.27.4.4,0,0,0,.3.17h16.21V26.57A12.44,12.44,0,0,0,127.18,19a116,116,0,0,1-18.67,38A7.88,7.88,0,0,1,109.53,57.83Z"/><path class="cls-2" d="M46,81.09l6.76-2.83L46.09,94.67,29.68,88.18l6.75-3A36.54,36.54,0,0,1,34,71.4,37.27,37.27,0,0,1,36.9,57.9,18.56,18.56,0,0,1,26.78,45.51a18,18,0,0,1,1.28-12.59,18.63,18.63,0,0,1,23.33-9.25l3.37-6.59L60.4,33.79,43.69,39.47l3.14-6.38a6.91,6.91,0,0,0-4.62,0,8.21,8.21,0,0,0-.65,15.36,1.23,1.23,0,0,0,1.69-.32l0-.05A35.63,35.63,0,0,1,72.05,35.25a36.8,36.8,0,0,1,5.13,73.16,41.72,41.72,0,0,1-6.41.57H24.41V98.68H70.33A25.73,25.73,0,0,0,94.4,84.17,26.5,26.5,0,1,0,44.57,69,25.6,25.6,0,0,0,46,81.09Z"/><path class="cls-2" d="M123,98.75v10.13H88.39l1-.54a42.53,42.53,0,0,0,11.81-9,2.15,2.15,0,0,1,1.39-.74h19.85Z"/><path class="cls-2" d="M137.78,98.75v10.13h-34.6l.94-.54a42.66,42.66,0,0,0,11.72-9,2,2,0,0,1,1.35-.74h19.88Z"/></g></svg>