<svg id="Слой_1" data-name="Слой 1" xmlns="http://www.w3.org/2000/svg" viewBox="0 0 100 50"><defs><style>.cls-1{opacity:0.18;}.cls-2{fill:#fff;}.cls-3{fill:#db2778;}.cls-4{fill:#c90065;}</style></defs><g id="Слой_1-2" data-name="Слой 1"><g class="cls-1"><rect x="8.28" y="4.9" width="182.74" height="98.24"/><path d="M16.07,16.72H29.46v4.81a.11.11,0,0,1,0,.08h-.05a3.74,3.74,0,0,0-1.15-.18h0a3.83,3.83,0,0,0-.48,7.63h.42a3.81,3.81,0,0,0,1.21-.17h.06a.11.11,0,0,1,0,.08v4.8h-4.8a1,1,0,0,0-.8.4,1,1,0,0,0-.15.91,3.2,3.2,0,0,1,.13.92v.32a3,3,0,0,1-2.57,2.53A2.88,2.88,0,0,1,18,36a2.82,2.82,0,0,1,.13-.87,1,1,0,0,0,.05-.35,1,1,0,0,0-1-1H12.36V20.43A3.72,3.72,0,0,1,16.07,16.72ZM42.59,33.77h4.89V20.43a3.72,3.72,0,0,0-3.71-3.71H30.37v4.81a1,1,0,0,1-.41.81.92.92,0,0,1-.55.19,1,1,0,0,1-.35,0,2.83,2.83,0,0,0-.87-.14,2.93,2.93,0,0,0-2.18,1,2.88,2.88,0,0,0-.72,2.28,2.92,2.92,0,0,0,2.53,2.57h.32a2.54,2.54,0,0,0,.91-.13,1.09,1.09,0,0,1,.36,0,1,1,0,0,1,1,1V33.9h4.89a.09.09,0,0,0,0-.07,3.71,3.71,0,0,1-.15-1.62A4.15,4.15,0,0,1,35.49,31a3.82,3.82,0,0,1,5.09-1.77,3.89,3.89,0,0,1,2,4.62Zm4.9,14.35V34.74H42.67a1,1,0,0,1-1.05-1,1,1,0,0,1,.05-.35,2.93,2.93,0,1,0-5.5-2,3.2,3.2,0,0,0-.06,2,1,1,0,0,1-.09.8l-.07.12a1,1,0,0,1-.81.41h-4.8v4.79a.09.09,0,0,0,0,.07.09.09,0,0,0,.1,0,3.82,3.82,0,0,1,4.79,2.52,4.15,4.15,0,0,1,.15.7,2.94,2.94,0,0,1,0,.42,3.91,3.91,0,0,1-1,2.58,3.83,3.83,0,0,1-2.85,1.27,3.74,3.74,0,0,1-1.15-.18.11.11,0,0,0-.13.09h0v4.8H43.78A3.72,3.72,0,0,0,47.49,48.12Zm-35.13,0a3.71,3.71,0,0,0,3.71,3.71h13.4V47h0a1,1,0,0,1,1-1,1,1,0,0,1,.35,0,2.89,2.89,0,0,0,.88.14,3,3,0,0,0,2.18-1,2.94,2.94,0,0,0,.75-2v-.31A2.93,2.93,0,0,0,32,40.38a3.05,3.05,0,0,0-1.24.11,1,1,0,0,1-.9-.15,1,1,0,0,1-.41-.8h0v-4.8H24.66a.11.11,0,0,0-.08,0,.06.06,0,0,0,0,.06h0A3.81,3.81,0,0,1,24.75,36a3.09,3.09,0,0,1,0,.43,3.84,3.84,0,0,1-3.37,3.32H21A3.84,3.84,0,0,1,17.09,36h0a4,4,0,0,1,.17-1.14h-4.9Z"/><path d="M29.47,51.84V47h0a1,1,0,0,1,1-1,1,1,0,0,1,.35,0,2.89,2.89,0,0,0,.88.14,3,3,0,0,0,2.18-1,2.94,2.94,0,0,0,.75-2v-.31A2.93,2.93,0,0,0,32,40.38a3.05,3.05,0,0,0-1.24.11,1,1,0,0,1-1.26-.65v0a54.75,54.75,0,0,1-17.15,6.26v2.07a3.71,3.71,0,0,0,3.71,3.71Z"/><path d="M41.86,34.33a1,1,0,0,1-.15-.89,3,3,0,0,0-.84-3.06l-.24-.19a38.42,38.42,0,0,1-10.26,9.09v.25a.09.09,0,0,0,0,.07.09.09,0,0,0,.1,0,3.82,3.82,0,0,1,4.79,2.52,4.15,4.15,0,0,1,.15.7,2.94,2.94,0,0,1,0,.42,3.91,3.91,0,0,1-1,2.58,3.83,3.83,0,0,1-2.85,1.27,3.74,3.74,0,0,1-1.15-.18.11.11,0,0,0-.13.09h0v4.8h13.5a3.72,3.72,0,0,0,3.71-3.71V34.74H42.67A1,1,0,0,1,41.86,34.33Z"/><path d="M41.48,29.69a3.79,3.79,0,0,1,1.1,4,.11.11,0,0,0,0,.08h4.89V20.43a3.66,3.66,0,0,0-.76-2.23,34.34,34.34,0,0,1-5.53,11.25A1.76,1.76,0,0,1,41.48,29.69Z"/></g><rect class="cls-2" x="-1.72" y="-5.1" width="182.74" height="98.24"/><path class="cls-3" d="M6.07,6.72H19.46v4.81a.11.11,0,0,1,0,.08h-.05a3.74,3.74,0,0,0-1.15-.18h0a3.83,3.83,0,0,0-.48,7.63h.42a3.81,3.81,0,0,0,1.21-.17h.06a.11.11,0,0,1,0,.08v4.8h-4.8a1,1,0,0,0-.8.4,1,1,0,0,0-.15.91,3.2,3.2,0,0,1,.13.92v.32a3,3,0,0,1-2.57,2.53A2.88,2.88,0,0,1,8,26a2.82,2.82,0,0,1,.13-.87,1,1,0,0,0,0-.35,1,1,0,0,0-1-1H2.36V10.43A3.72,3.72,0,0,1,6.07,6.72ZM32.59,23.77a.11.11,0,0,0,.09.05h4.8V10.43a3.72,3.72,0,0,0-3.71-3.71H20.37v4.81a1,1,0,0,1-.41.81.92.92,0,0,1-.55.19,1,1,0,0,1-.35,0,2.83,2.83,0,0,0-.87-.14,2.93,2.93,0,0,0-2.18,1,2.88,2.88,0,0,0-.72,2.28,2.92,2.92,0,0,0,2.53,2.57h.32a2.54,2.54,0,0,0,.91-.13,1.09,1.09,0,0,1,.36,0,1,1,0,0,1,1,1V23.9h4.81a.11.11,0,0,0,.08,0h0a.09.09,0,0,0,0-.07,3.71,3.71,0,0,1-.15-1.62A4.15,4.15,0,0,1,25.49,21a3.82,3.82,0,0,1,5.09-1.77,3.89,3.89,0,0,1,2,4.62Zm4.9,14.35V24.74H32.67a1,1,0,0,1-1.05-.95,1,1,0,0,1,.05-.35,2.93,2.93,0,1,0-5.5-2,3.2,3.2,0,0,0-.06,2,1,1,0,0,1-.09.8l-.07.12a1,1,0,0,1-.81.41h-4.8v4.79a.09.09,0,0,0,0,.07.09.09,0,0,0,.1,0,3.82,3.82,0,0,1,4.79,2.52,4.15,4.15,0,0,1,.15.7,2.94,2.94,0,0,1,0,.42,3.91,3.91,0,0,1-1,2.58,3.83,3.83,0,0,1-2.85,1.27,3.74,3.74,0,0,1-1.15-.18.11.11,0,0,0-.13.09h0v4.8H33.78A3.72,3.72,0,0,0,37.49,38.12Zm-35.13,0a3.71,3.71,0,0,0,3.71,3.71h13.4V37h0a1,1,0,0,1,1-1,1,1,0,0,1,.35,0,2.89,2.89,0,0,0,.88.14,3,3,0,0,0,2.18-1,2.94,2.94,0,0,0,.75-2v-.31A2.93,2.93,0,0,0,22,30.38a3.05,3.05,0,0,0-1.24.11,1,1,0,0,1-.9-.15,1,1,0,0,1-.41-.8h0v-4.8H14.58a.06.06,0,0,0,0,.06h0A3.81,3.81,0,0,1,14.75,26a3.09,3.09,0,0,1,0,.43,3.84,3.84,0,0,1-3.37,3.32H11A3.84,3.84,0,0,1,7.09,26h0a4,4,0,0,1,.17-1.14H2.36Z"/><path class="cls-4" d="M19.47,41.84V37h0a1,1,0,0,1,1-1,1,1,0,0,1,.35,0,2.89,2.89,0,0,0,.88.14,3,3,0,0,0,2.18-1,2.94,2.94,0,0,0,.75-2v-.31A2.93,2.93,0,0,0,22,30.38a3.05,3.05,0,0,0-1.24.11,1,1,0,0,1-1.26-.65v0A54.89,54.89,0,0,1,2.36,36.06v2.07a3.71,3.71,0,0,0,3.71,3.71Z"/><path class="cls-4" d="M31.86,24.33a1,1,0,0,1-.15-.89,3,3,0,0,0-.84-3.06l-.24-.19a38.42,38.42,0,0,1-10.26,9.09v.25a.09.09,0,0,0,0,.07.09.09,0,0,0,.1,0,3.82,3.82,0,0,1,4.79,2.52,4.15,4.15,0,0,1,.15.7,2.94,2.94,0,0,1,0,.42,3.91,3.91,0,0,1-1,2.58,3.83,3.83,0,0,1-2.85,1.27,3.74,3.74,0,0,1-1.15-.18.11.11,0,0,0-.13.09h0v4.8h13.5a3.72,3.72,0,0,0,3.71-3.71V24.74H32.67A1,1,0,0,1,31.86,24.33Z"/><path class="cls-4" d="M31.48,19.69a3.79,3.79,0,0,1,1.1,4,.11.11,0,0,0,0,.08.11.11,0,0,0,.09.05h4.8V10.43a3.66,3.66,0,0,0-.76-2.23,34.34,34.34,0,0,1-5.53,11.25A1.76,1.76,0,0,1,31.48,19.69Z"/><path class="cls-2" d="M12.65,26.58l2-.84-2,4.86L7.83,28.68l2-.88a10.75,10.75,0,0,1-.71-4.09,11,11,0,0,1,.85-4A5.51,5.51,0,0,1,7,16a5.35,5.35,0,0,1,.38-3.73,5.51,5.51,0,0,1,6.91-2.74l1-1.95,1.67,5L12,14.25l.93-1.89a2,2,0,0,0-1.37,0,2.43,2.43,0,0,0-.19,4.55.36.36,0,0,0,.5-.09v0A10.57,10.57,0,0,1,20.38,13,10.9,10.9,0,0,1,21.9,34.67a12.09,12.09,0,0,1-1.9.17H6.27V31.79h13.6A7.61,7.61,0,0,0,27,27.49a7.85,7.85,0,1,0-13.91-7.27A7.75,7.75,0,0,0,12.24,23,7.64,7.64,0,0,0,12.65,26.58Z"/><path class="cls-2" d="M35.47,31.81v3H25.22l.28-.16A12.59,12.59,0,0,0,29,32a.64.64,0,0,1,.41-.22h5.88Z"/><path class="cls-2" d="M39.85,31.81v3H29.6l.28-.16A12.65,12.65,0,0,0,33.35,32a.62.62,0,0,1,.4-.22h5.89Z"/><path class="cls-4" d="M41.74,20.05a1.48,1.48,0,0,1,.84.25,3.52,3.52,0,0,0,1.8.78c.31,0,.47-.08.47-.25s-.29-.45-.86-.9a16.57,16.57,0,0,1-1.59-1.29A4.76,4.76,0,0,1,41,15.05a4.69,4.69,0,0,1,0-.53,11.32,11.32,0,0,1,.21-1.64,18.8,18.8,0,0,1,.57-1.8,14.18,14.18,0,0,1,1.77-3.27,2.26,2.26,0,0,1,1.82-1.08,1.76,1.76,0,0,1,1.08.37,6.61,6.61,0,0,1,1.83,2A4.93,4.93,0,0,1,49,11.66a9.64,9.64,0,0,1-.47,2.55,19.63,19.63,0,0,1-1.07,2.89c-.25.53-.46.8-.61.8a.62.62,0,0,1-.26-.09A1.94,1.94,0,0,1,45.38,16a12.38,12.38,0,0,1,.31-1.7,11.75,11.75,0,0,0,.3-1.87c0-.22,0-.32-.13-.32s-.36.19-.66.58a8.13,8.13,0,0,0-.52.78,5.56,5.56,0,0,0-.86,2.74,1.89,1.89,0,0,0,.37,1.21,6.44,6.44,0,0,0,.8.85l.87.79c.62.57.93,1.05.93,1.43a1.74,1.74,0,0,1-.53,1.09,2.52,2.52,0,0,1-1.93.82h-.09a4.09,4.09,0,0,1-2.72-1.29c-.34-.32-.52-.55-.52-.68a.28.28,0,0,1,.13-.24A1.3,1.3,0,0,1,41.74,20.05Z"/><path class="cls-4" d="M57.23,20.23a.31.31,0,0,1,.06.19,1.22,1.22,0,0,1-.2.55,2.56,2.56,0,0,1-2.26,1.49h-.15a2.84,2.84,0,0,1-2.36-1.4,8.7,8.7,0,0,1-.79-4.32,19.17,19.17,0,0,1,.46-4,14.62,14.62,0,0,1,1.39-4C54.06,7.55,54.84,7,55.72,7a2.66,2.66,0,0,1,1,.2,5.48,5.48,0,0,1,1.85,1.31,4.09,4.09,0,0,1,1.16,2.89c0,.31,0,.61-.07.92a15.54,15.54,0,0,1-.75,3.44c-.24.72-.47,1.08-.68,1.08a1,1,0,0,1-.24,0,1.59,1.59,0,0,1-1-.79,2.93,2.93,0,0,1-.28-1.3V13a3.05,3.05,0,0,0-.08-.74c-.06-.21-.15-.32-.3-.32s-.25.1-.39.28a5.25,5.25,0,0,0-.51.89c-.09.21-.22.53-.38,1a19.61,19.61,0,0,0-1,3.62,10.21,10.21,0,0,0-.14,1.74c0,1.25.2,1.87.59,1.87s.58-.25,1-.76a1.23,1.23,0,0,1,1-.48A1,1,0,0,1,57.23,20.23Z"/><path class="cls-4" d="M64.75,22.15a.2.2,0,0,1-.19.22h-.18a3.81,3.81,0,0,1-.75-.22.79.79,0,0,1-.38-.65l-.18-1.94L62.94,18c-.18-2.23-.27-4-.27-5.2,0-1.53.12-2.41.37-2.66A16.71,16.71,0,0,1,65.5,8a4.9,4.9,0,0,1,2.6-1c1,0,1.73.63,2.22,1.89A11.1,11.1,0,0,1,71.08,13a6,6,0,0,1-1.22,3.79,9.76,9.76,0,0,1-3,2.42c.53.78,1,1.42,1.42,1.92.1.12.21.24.32.35a1,1,0,0,1,.24.37.55.55,0,0,1-.39.34,1.59,1.59,0,0,1-.61.13h-.29A1.2,1.2,0,0,1,67.1,22l-.37-.33A12.4,12.4,0,0,1,65,19.78C64.87,20.84,64.79,21.63,64.75,22.15Zm.54-4.69a6.74,6.74,0,0,0,2.43-2,3.89,3.89,0,0,0,1-2.11c0-.5-.31-.75-.92-.75a3,3,0,0,0-1.81.74C65.65,15.15,65.43,16.54,65.29,17.46Z"/><path class="cls-4" d="M74.19,17.89A56,56,0,0,1,74,12.24V9c0-.74.16-1.11.44-1.11a3.31,3.31,0,0,1,1.37.82,3.65,3.65,0,0,1,1.59,2.93A13.42,13.42,0,0,1,77.15,14c-.23,1.33-.36,2.11-.39,2.32a28.4,28.4,0,0,0-.28,3.32c0,1.05.15,1.58.46,1.58s.63-.66,1-2c.31-1,.66-2.61,1.07-4.73.35-1.87.69-3.8,1-5.8q.19-1.23.72-1.23a1.84,1.84,0,0,1,1.12.68,7.37,7.37,0,0,1,.85,1,2.15,2.15,0,0,1,.44,1,4.26,4.26,0,0,1-.22,1.06c-1,3.18-1.72,5.48-2.22,6.87a13.44,13.44,0,0,1-1.61,3.35,2.1,2.1,0,0,1-1.65.9,2.64,2.64,0,0,1-2.38-1.14A8,8,0,0,1,74.19,17.89Z"/><path class="cls-4" d="M87.33,19.33c0,.71,0,1.65.06,2.84,0,.15,0,.23-.18.23a1.84,1.84,0,0,1-.47-.07c-.58-.15-.92-.43-1-.85s-.18-.81-.24-1.19c-.18-1.06-.39-2.38-.62-4C84.54,14,84.24,11.61,84,9V8.48c0-.63.19-.94.56-.94a1.34,1.34,0,0,1,.4.07,7.41,7.41,0,0,1,.8.25,8.69,8.69,0,0,1,1.94,1,2.58,2.58,0,0,1,1,1.21A7.58,7.58,0,0,1,89,11.63c0,.46,0,.91.06,1.37l.59,4.66c.11-.38.26-.83.43-1.33.38-1,.79-2.19,1.26-3.42l1.37-3.6a11.27,11.27,0,0,1,.53-1.24c.32-.65.67-1,1-1a1.68,1.68,0,0,1,.78.29l.77.5a9,9,0,0,1,.89.63,2.23,2.23,0,0,1,1,1.51,4,4,0,0,1-.43,1.43l-.91,2c-.7,1.56-1.3,3-1.83,4.22l-.79,1.86c-.52,1.21-.85,2-1,2.52-.1.18-.2.28-.32.28a1.55,1.55,0,0,1-.76-.21c-.25-.14-.38-.3-.38-.47a12.34,12.34,0,0,1,.46-2c.34-1.33.71-2.59,1.09-3.78-1.09,2.11-2,4-2.72,5.63-.09.21-.18.31-.28.31l-.52-.11a1,1,0,0,1-.78-.78c-.35-1.11-.75-2.7-1.2-4.78C87.34,17.33,87.33,18.38,87.33,19.33Z"/><path class="cls-4" d="M43.38,41.74a.2.2,0,0,1-.22.22,2.89,2.89,0,0,1-.58-.14c-.54-.16-.8-.4-.8-.72V41a.74.74,0,0,0,0-.21c0-.33-.07-1.21-.2-2.62l-.18-1.89q-.09-1-.18-2c-.12-1.52-.19-2.57-.19-3.16a1.73,1.73,0,0,1,.09-.78A15.1,15.1,0,0,1,43.78,28a5.54,5.54,0,0,1,3-1.23,2.16,2.16,0,0,1,2.07,1.66,11.73,11.73,0,0,1,.76,4.1,6,6,0,0,1-1.56,4.09,9.19,9.19,0,0,1-2,1.73,11,11,0,0,1-2.44,1.18C43.48,40.51,43.4,41.25,43.38,41.74Zm2.91-6.66a3.79,3.79,0,0,0,.88-2.2q0-.69-.81-.69a3.29,3.29,0,0,0-1.87.73c-.12.72-.22,1.43-.31,2.11l-.3,2A5.88,5.88,0,0,0,46.29,35.08Z"/><path class="cls-4" d="M52.14,37.43c-.14-1.42-.22-3.31-.22-5.66V28.53q0-1.11.45-1.11a3.29,3.29,0,0,1,1.37.81,3.7,3.7,0,0,1,1.58,2.93,14.07,14.07,0,0,1-.25,2.33c-.24,1.33-.37,2.11-.39,2.32a28.4,28.4,0,0,0-.28,3.32c0,1,.15,1.57.45,1.57s.64-.65,1-2c.3-1,.66-2.61,1.06-4.73q.54-2.8,1-5.8c.17-.78.43-1.17.79-1.17a1.84,1.84,0,0,1,1.11.67,7.18,7.18,0,0,1,.85,1.06,2.17,2.17,0,0,1,.45,1,4.19,4.19,0,0,1-.23,1.05q-1.46,4.78-2.22,6.88A13.37,13.37,0,0,1,57.05,41a2.06,2.06,0,0,1-1.65.9A2.64,2.64,0,0,1,53,40.77,8.11,8.11,0,0,1,52.14,37.43Z"/><path class="cls-4" d="M65.92,32.62a6,6,0,0,0-1,.3h-.3a1.13,1.13,0,0,1-.93-.68c-.32-.73-.56-1.27-.73-1.63a5.1,5.1,0,0,1-.49-1.52c0-.19.13-.38.4-.56a8.79,8.79,0,0,1,2.53-.9,35.7,35.7,0,0,1,4.6-.69h.12c.37,0,.61.25.73.74a9,9,0,0,1,.12,1.8V30.6a3.45,3.45,0,0,1-.57,2q-2.73,4.13-5.07,7.81a5.81,5.81,0,0,1,1.55-.28.69.69,0,0,1,.61.46,1.62,1.62,0,0,1,.17.72c0,.13-.12.21-.35.24-.81.13-1.56.28-2.26.46a1.93,1.93,0,0,1-.34,0,.57.57,0,0,1-.26,0,3.06,3.06,0,0,1-.82-.56,1,1,0,0,1-.41-.63.38.38,0,0,1,0-.15c.16-.49.37-1,.62-1.63.15-.34.37-.88.69-1.59.7-1.59,1.5-3.25,2.41-5A5.43,5.43,0,0,0,65.92,32.62Z"/><path class="cls-4" d="M75.75,32.62a6,6,0,0,0-1,.3h-.3a1.13,1.13,0,0,1-.93-.68c-.32-.73-.56-1.27-.73-1.63a5.1,5.1,0,0,1-.49-1.52c0-.19.13-.38.4-.56a8.79,8.79,0,0,1,2.53-.9,35,35,0,0,1,4.55-.72h.12c.37,0,.61.25.73.74a9,9,0,0,1,.12,1.8V30.6a3.45,3.45,0,0,1-.57,2q-2.73,4.13-5.07,7.81a5.81,5.81,0,0,1,1.55-.28.69.69,0,0,1,.61.46,1.62,1.62,0,0,1,.17.72c0,.13-.12.21-.35.24-.81.13-1.56.28-2.26.46a1.93,1.93,0,0,1-.34,0,.57.57,0,0,1-.26,0,3.06,3.06,0,0,1-.82-.56,1,1,0,0,1-.41-.63.38.38,0,0,1,0-.15c.16-.49.37-1,.62-1.63.15-.34.37-.88.69-1.59.67-1.59,1.47-3.25,2.41-5A5.62,5.62,0,0,0,75.75,32.62Z"/><path class="cls-4" d="M87,41.38l-1.13.22-.55.12-.53.11-.37.07a.44.44,0,0,1-.25-.06A2,2,0,0,1,83,40.78a8.17,8.17,0,0,1-.1-1.64V36.78c0-.83,0-1.73.07-2.67,0-1.11.1-2.18.17-3.22s.15-2.06.24-3.06c.06-.77.25-1.16.57-1.16a1.16,1.16,0,0,1,.48.14,5.39,5.39,0,0,1,1.89,1.56A2.33,2.33,0,0,1,87,29.72a3.19,3.19,0,0,1-.13.81q-1.07,4.34-2,9.6a9.53,9.53,0,0,1,1.77-.23c.23,0,.41.16.54.49a2,2,0,0,1,.15.76C87.29,41.27,87.17,41.34,87,41.38Z"/><path class="cls-4" d="M89.76,29l.67-.34.75-.36c.57-.25,1.14-.48,1.73-.68a16.09,16.09,0,0,1,1.8-.52,8.45,8.45,0,0,1,1.93-.31h.09c.41,0,.68.33.81,1a7,7,0,0,1,.07.79v2.1a2.06,2.06,0,0,1-.17.69.78.78,0,0,1-.59.35L95.17,32l-.9.18-.93.21-.42,2.16c-.12.62-.22,1.13-.29,1.55A5.78,5.78,0,0,1,94,35.93h.11a.66.66,0,0,1,.65.5A4.72,4.72,0,0,1,95,37.82c0,.22-.14.35-.42.41l-1.45.33-1,.23c0,.3-.09.57-.12.8s-.07.42-.1.57a8.06,8.06,0,0,1,1.83-.24c.24,0,.43.15.57.47a1.57,1.57,0,0,1,.16.74c0,.14-.1.22-.31.26l-.79.18-.56.12a6,6,0,0,1-1.2.19,1.28,1.28,0,0,1-.28-.07,2,2,0,0,1-.84-.51,1.32,1.32,0,0,1-.41-.85Z"/></g></svg>