<svg id="Слой_1" data-name="Слой 1" xmlns="http://www.w3.org/2000/svg" viewBox="0 0 50 50"><defs><style>.cls-1{fill:#fff;}</style></defs><circle class="cls-1" cx="25" cy="17.2" r="3.43"/><path class="cls-1" d="M15.51,20.69A3.1,3.1,0,0,1,12.82,16l2.58-4.47a11.09,11.09,0,0,1,19.2,0L37.18,16a3.11,3.11,0,0,1-5.39,3.11l-2.58-4.47a4.86,4.86,0,0,0-8.42,0l-2.58,4.47A3.12,3.12,0,0,1,15.51,20.69Z"/><path class="cls-1" d="M14.25,29.88A3.43,3.43,0,1,1,13,34.56,3.41,3.41,0,0,1,14.25,29.88Z"/><path class="cls-1" d="M21,44H15.88a11.08,11.08,0,0,1-9.6-16.62l2.58-4.47A3.11,3.11,0,1,1,14.25,26l-2.58,4.47a4.86,4.86,0,0,0,4.21,7.29H21A3.11,3.11,0,0,1,21,44Z"/><path class="cls-1" d="M32.32,35.82A3.43,3.43,0,1,1,37,34.56,3.42,3.42,0,0,1,32.32,35.82Z"/><path class="cls-1" d="M34.12,44H29a3.11,3.11,0,0,1,0-6.22h5.16a4.86,4.86,0,0,0,4.21-7.29L35.75,26a3.11,3.11,0,1,1,5.39-3.11l2.58,4.47A11.08,11.08,0,0,1,34.12,44Z"/></svg>