<svg id="Слой_1" data-name="Слой 1" xmlns="http://www.w3.org/2000/svg" viewBox="0 0 100 50"><defs><style>.cls-1{fill:#db2878;}</style></defs><circle class="cls-1" cx="23.58" cy="17.2" r="3.43"/><path class="cls-1" d="M14.09,20.69A3.1,3.1,0,0,1,11.4,16L14,11.56a11.09,11.09,0,0,1,19.2,0L35.76,16a3.11,3.11,0,0,1-5.39,3.11l-2.58-4.47a4.86,4.86,0,0,0-8.42,0l-2.58,4.47A3.12,3.12,0,0,1,14.09,20.69Z"/><path class="cls-1" d="M12.83,29.88a3.43,3.43,0,1,1-1.26,4.68A3.41,3.41,0,0,1,12.83,29.88Z"/><path class="cls-1" d="M19.62,44H14.46a11.08,11.08,0,0,1-9.6-16.62l2.58-4.47A3.11,3.11,0,1,1,12.83,26l-2.58,4.47a4.86,4.86,0,0,0,4.21,7.29h5.16a3.11,3.11,0,0,1,0,6.22Z"/><path class="cls-1" d="M30.9,35.82a3.43,3.43,0,1,1,4.69-1.26A3.42,3.42,0,0,1,30.9,35.82Z"/><path class="cls-1" d="M32.7,44H27.54a3.11,3.11,0,0,1,0-6.22H32.7a4.86,4.86,0,0,0,4.21-7.29L34.33,26a3.11,3.11,0,1,1,5.39-3.11l2.58,4.47A11.08,11.08,0,0,1,32.7,44Z"/></svg>