<svg id="Слой_1" data-name="Слой 1" xmlns="http://www.w3.org/2000/svg" xmlns:xlink="http://www.w3.org/1999/xlink" viewBox="0 0 100 50"><defs><style>.cls-1{fill:url(#Безымянный_градиент_11);}.cls-2{fill:url(#Безымянный_градиент_11-2);}.cls-3{fill:url(#Безымянный_градиент_11-3);}.cls-4{fill:url(#Безымянный_градиент_11-4);}.cls-5{fill:url(#Безымянный_градиент_11-5);}.cls-6{fill:url(#Безымянный_градиент_11-6);}</style><linearGradient id="Безымянный_градиент_11" x1="20.15" y1="17.2" x2="27.01" y2="17.2" gradientUnits="userSpaceOnUse"><stop offset="0" stop-color="#45b0e5"/><stop offset="0" stop-color="#2e52a0"/><stop offset="0.13" stop-color="#245ea9"/><stop offset="0.43" stop-color="#1472b9"/><stop offset="0.72" stop-color="#0a7fc3"/><stop offset="1" stop-color="#0783c6"/></linearGradient><linearGradient id="Безымянный_градиент_11-2" x1="10.99" y1="13.36" x2="36.17" y2="13.36" xlink:href="#Безымянный_градиент_11"/><linearGradient id="Безымянный_градиент_11-3" x1="11.11" y1="32.85" x2="17.97" y2="32.85" xlink:href="#Безымянный_градиент_11"/><linearGradient id="Безымянный_градиент_11-4" x1="3.36" y1="32.66" x2="22.73" y2="32.66" xlink:href="#Безымянный_градиент_11"/><linearGradient id="Безымянный_градиент_11-5" x1="29.19" y1="32.85" x2="36.05" y2="32.85" xlink:href="#Безымянный_градиент_11"/><linearGradient id="Безымянный_градиент_11-6" x1="24.43" y1="32.66" x2="43.8" y2="32.66" xlink:href="#Безымянный_градиент_11"/></defs><circle class="cls-1" cx="23.58" cy="17.2" r="3.43"/><path class="cls-2" d="M14.09,20.69A3.1,3.1,0,0,1,11.4,16L14,11.56a11.09,11.09,0,0,1,19.2,0L35.76,16a3.11,3.11,0,0,1-5.39,3.11l-2.58-4.47a4.86,4.86,0,0,0-8.42,0l-2.58,4.47A3.12,3.12,0,0,1,14.09,20.69Z"/><path class="cls-3" d="M12.83,29.88a3.43,3.43,0,1,1-1.26,4.68A3.41,3.41,0,0,1,12.83,29.88Z"/><path class="cls-4" d="M19.62,44H14.46a11.08,11.08,0,0,1-9.6-16.62l2.58-4.47A3.11,3.11,0,1,1,12.83,26l-2.58,4.47a4.86,4.86,0,0,0,4.21,7.29h5.16a3.11,3.11,0,0,1,0,6.22Z"/><path class="cls-5" d="M30.9,35.82a3.43,3.43,0,1,1,4.69-1.26A3.42,3.42,0,0,1,30.9,35.82Z"/><path class="cls-6" d="M32.7,44H27.54a3.11,3.11,0,0,1,0-6.22H32.7a4.86,4.86,0,0,0,4.21-7.29L34.33,26a3.11,3.11,0,1,1,5.39-3.11l2.58,4.47A11.08,11.08,0,0,1,32.7,44Z"/></svg>