<svg id="Слой_1" data-name="Слой 1" xmlns="http://www.w3.org/2000/svg" viewBox="0 0 168.44 50"><defs><style>.cls-1{fill:#1d1e1b;}.cls-2{fill:#db2878;}.cls-3{font-size:21.02px;fill:#1d1d1b;font-family:HeartbitBold, Heartbit;}</style></defs><circle class="cls-1" cx="46.56" cy="15.86" r="3.34"/><path class="cls-2" d="M37.63,11.71a3,3,0,0,1-.78-1.36A3,3,0,0,1,39,6.65l4.86-1.29A10.79,10.79,0,0,1,57,18.61l-1.31,4.85a3,3,0,1,1-5.85-1.58L51.2,17a4.73,4.73,0,0,0-5.79-5.81l-4.86,1.29A3,3,0,0,1,37.63,11.71Z"/><path class="cls-1" d="M30.42,17.15a3.34,3.34,0,1,1-4.1,2.35A3.34,3.34,0,0,1,30.42,17.15Z"/><path class="cls-2" d="M25.35,31.52,21.8,28a10.78,10.78,0,0,1,4.89-18l4.85-1.29a3,3,0,0,1,1.55,5.85l-4.85,1.29a4.73,4.73,0,0,0-2.14,7.92l3.54,3.56a3,3,0,1,1-4.29,4.27Z"/><path class="cls-1" d="M38.73,33.71a3.34,3.34,0,1,1,4.09,2.37A3.35,3.35,0,0,1,38.73,33.71Z"/><path class="cls-2" d="M34.33,40.56,30.79,37a3,3,0,1,1,4.29-4.28l3.55,3.56a4.66,4.66,0,0,0,4.57,1.24,4.71,4.71,0,0,0,3.36-3.34l1.31-4.85a3,3,0,0,1,5.84,1.58L52.4,35.76a10.79,10.79,0,0,1-18.07,4.8Z"/><text class="cls-3" transform="translate(61.36 22.78)">ACTION</text><text class="cls-3" transform="translate(59.16 41.19)">DELEGATION</text></svg>