<svg id="Слой_1" data-name="Слой 1" xmlns="http://www.w3.org/2000/svg" viewBox="0 0 100 50"><defs><style>.cls-1,.cls-2{fill:#db2878;}.cls-2{font-size:17.28px;font-family:SquareBeatDEMO-Regular, Square Beat DEMO;}.cls-3{letter-spacing:-0.03em;}.cls-4{letter-spacing:-0.03em;}.cls-5{letter-spacing:-0.01em;}.cls-6{letter-spacing:-0.01em;}</style></defs><path class="cls-1" d="M4.48,24h0l.31.06Zm0,0h0l.31.06Zm0,0h0l.31.06Zm0,0h0l.31.06Zm0,0h0l.31.06Z"/><path class="cls-1" d="M18,15a19.4,19.4,0,0,1-.43,4.08,18.36,18.36,0,0,1-1.22,3.69A18.18,18.18,0,0,1,12.68,24a19.19,19.19,0,0,1-4.12.44,19.36,19.36,0,0,1-3.77-.37h0L4.48,24l.3-.07L4.47,24A16.79,16.79,0,0,1,17.54,10.94h0v0A19.4,19.4,0,0,1,18,15Z"/><path class="cls-1" d="M4.78,24.09,4.47,24h0Z"/><path class="cls-1" d="M17.54,10.94a18.94,18.94,0,0,0-4.1-.44,18.72,18.72,0,0,0-7.76,1.65A18.76,18.76,0,0,0,4,19.92,19.66,19.66,0,0,0,4.46,24h0A16.79,16.79,0,0,1,17.54,10.94Z"/><path class="cls-1" d="M19.71,11h0c0,.11-.05.21-.07.31C19.67,11.15,19.69,11.05,19.71,11Zm0,0h0c0,.11-.05.21-.07.31C19.67,11.15,19.69,11.05,19.71,11Zm0,0h0c0,.11-.05.21-.07.31C19.67,11.15,19.69,11.05,19.71,11Zm0,0h0c0,.11-.05.21-.07.31C19.67,11.15,19.69,11.05,19.71,11Zm0,0h0c0,.11-.05.21-.07.31C19.67,11.15,19.69,11.05,19.71,11Z"/><path class="cls-1" d="M28.69,24.46A19.4,19.4,0,0,1,24.61,24a18.36,18.36,0,0,1-3.69-1.22,18.06,18.06,0,0,1-1.21-3.66A19.68,19.68,0,0,1,19.27,15a19.46,19.46,0,0,1,.37-3.78h0c0-.1.05-.2.07-.3,0,.1.05.2.07.3l-.06-.31A16.85,16.85,0,0,1,32.8,24h0A19.56,19.56,0,0,1,28.69,24.46Z"/><path class="cls-1" d="M19.64,11.25c0-.1.05-.2.07-.31h0C19.69,11.05,19.67,11.15,19.64,11.25Z"/><path class="cls-1" d="M32.8,24a19.59,19.59,0,0,0,.44-4.1,18.8,18.8,0,0,0-1.65-7.77,19.19,19.19,0,0,0-11.87-1.21h0A16.85,16.85,0,0,1,32.8,24Z"/><path class="cls-1" d="M32.78,26.2h0l-.32-.06Zm0,0h0l-.32-.06Zm0,0h0l-.32-.06Zm0,0h0l-.32-.06Zm0,0h0l-.32-.06Z"/><path class="cls-1" d="M19.28,35.17a19.4,19.4,0,0,1,.43-4.08,18.92,18.92,0,0,1,1.22-3.68,18.18,18.18,0,0,1,3.65-1.21,19.19,19.19,0,0,1,4.12-.44,18.61,18.61,0,0,1,3.77.37h0l.3.07-.3.06.31-.06A16.82,16.82,0,0,1,19.72,39.28h0A19.56,19.56,0,0,1,19.28,35.17Z"/><path class="cls-1" d="M32.48,26.13l.32.06h0Z"/><path class="cls-1" d="M19.72,39.28a19.59,19.59,0,0,0,4.1.43,18.72,18.72,0,0,0,7.76-1.65,18.72,18.72,0,0,0,1.65-7.76,19.59,19.59,0,0,0-.43-4.1h0A16.85,16.85,0,0,1,19.72,39.28Z"/><path class="cls-1" d="M17.55,39.26v0h0c0-.11.05-.21.07-.32C17.59,39.06,17.57,39.16,17.55,39.26Zm0,0v0h0c0-.11.05-.21.07-.32C17.59,39.06,17.57,39.16,17.55,39.26Zm0,0v0h0c0-.11.05-.21.07-.32C17.59,39.06,17.57,39.16,17.55,39.26Zm0,0v0h0c0-.11.05-.21.07-.32C17.59,39.06,17.57,39.16,17.55,39.26Zm0,0v0h0c0-.11.05-.21.07-.32C17.59,39.06,17.57,39.16,17.55,39.26Z"/><path class="cls-1" d="M8.57,25.76a19.4,19.4,0,0,1,4.08.43,17.75,17.75,0,0,1,3.69,1.22,18,18,0,0,1,1.21,3.65A19.19,19.19,0,0,1,18,35.18,19.36,19.36,0,0,1,17.62,39h0c0,.1-.05.2-.07.3,0-.1-.05-.2-.07-.3l.06.31A16.82,16.82,0,0,1,4.46,26.19h0A19.56,19.56,0,0,1,8.57,25.76Z"/><path class="cls-1" d="M17.62,39c0,.11,0,.21-.07.32h0v0C17.57,39.16,17.59,39.06,17.62,39Z"/><path class="cls-1" d="M4.46,26.2A19.49,19.49,0,0,0,4,30.29a18.57,18.57,0,0,0,1.65,7.77,18.73,18.73,0,0,0,7.77,1.65,19.66,19.66,0,0,0,4.1-.43h0A16.85,16.85,0,0,1,4.46,26.19h0Z"/><text class="cls-2" transform="translate(36.97 22.43)"><tspan class="cls-3">Y</tspan><tspan x="9.38" y="0">OU</tspan><tspan class="cls-4" x="30.27" y="0">R</tspan><tspan x="0" y="17">C</tspan><tspan class="cls-5" x="8.55" y="17">Y</tspan><tspan x="18.28" y="17">NE</tspan><tspan class="cls-6" x="36.47" y="17">F</tspan><tspan x="44.72" y="17">IN</tspan></text></svg>