<svg id="Слой_1" data-name="Слой 1" xmlns="http://www.w3.org/2000/svg" viewBox="0 0 283.46 141.73"><defs><style>.cls-1,.cls-3{fill:#db2878;}.cls-2{fill:#1d1d1b;}.cls-3{font-size:42.85px;font-family:Austere;}</style></defs><path class="cls-1" d="M22,108.54H11.1a3.66,3.66,0,0,1-3.69-4.48L19.64,34.73a5.56,5.56,0,0,1,5.26-4.47H35.77a3.64,3.64,0,0,1,3.68,4.47L27.23,104.06A5.58,5.58,0,0,1,22,108.54Z"/><path class="cls-2" d="M44.43,108.54H33.56a3.65,3.65,0,0,1-3.68-4.48L42.1,34.73a5.58,5.58,0,0,1,5.27-4.47H58.23a3.65,3.65,0,0,1,3.69,4.47L49.69,104.06A5.57,5.57,0,0,1,44.43,108.54Z"/><path class="cls-1" d="M66.9,108.54H56a3.65,3.65,0,0,1-3.68-4.48L64.57,34.73a5.57,5.57,0,0,1,5.26-4.47H80.7a3.64,3.64,0,0,1,3.68,4.47L72.16,104.06A5.58,5.58,0,0,1,66.9,108.54Z"/><text class="cls-3" transform="translate(84.93 65.27)">EASY</text><text class="cls-3" transform="translate(77.85 106.7)">KANBAN</text></svg>