<?xml version="1.0" encoding="utf-8"?>
<!-- Generator: Adobe Illustrator 26.0.3, SVG Export Plug-In . SVG Version: 6.00 Build 0)  -->
<svg version="1.1" id="Слой_1" xmlns="http://www.w3.org/2000/svg" xmlns:xlink="http://www.w3.org/1999/xlink" x="0px" y="0px"
	 viewBox="0 0 826.5 141.7" style="enable-background:new 0 0 826.5 141.7;" xml:space="preserve">
<style type="text/css">
	.st0{fill:#FFFFFF;}
	.st1{fill:#DB2778;}
	.st2{font-family:'GlobalDynamicsCondensed';}
	.st3{font-size:126.9523px;}
</style>
<path class="st0" d="M-41.6,45.4h26.1c0.6,0,1.2,0.5,1.2,1.2v9.9c0,0.6-0.5,1.1-1.2,1.1h-26.1c-0.6,0-1.2-0.5-1.2-1.1v-9.9
	C-42.7,45.9-42.2,45.4-41.6,45.4z"/>
<path class="st0" d="M-41.6,72.6h26.1c0.6,0,1.2,0.5,1.2,1.2v9.9c0,0.6-0.5,1.2-1.2,1.2h-26.1c-0.6,0-1.2-0.5-1.2-1.2v-9.9
	C-42.7,73.1-42.2,72.6-41.6,72.6z"/>
<path class="st0" d="M-50.7,59h26.1c0.6,0,1.1,0.5,1.1,1.2v9.9c0,0.6-0.5,1.1-1.1,1.1h-26.1c-0.6,0-1.2-0.5-1.2-1.1v-9.9
	C-51.8,59.5-51.3,59-50.7,59z"/>
<path class="st0" d="M-9.7,45.8v38.5c0,0.3-0.3,0.6-0.6,0.6h-1.9c-0.3,0-0.6-0.3-0.6-0.6V45.8c0-0.3,0.3-0.6,0.6-0.6h1.9
	C-9.9,45.3-9.7,45.5-9.7,45.8z"/>
<g>
	<g>
		<path class="st1" d="M43,24.6h65.9c1.6,0,2.9,1.3,2.9,2.9v25c0,1.6-1.3,2.9-2.9,2.9H43c-1.6,0-2.9-1.3-2.9-2.9v-25
			C40.1,25.9,41.4,24.6,43,24.6z"/>
		<path class="st1" d="M43,93.4h65.9c1.6,0,2.9,1.3,2.9,2.9v25c0,1.6-1.3,2.9-2.9,2.9H43c-1.6,0-2.9-1.3-2.9-2.9v-25
			C40.1,94.7,41.4,93.4,43,93.4z"/>
		<path class="st1" d="M20,59h65.9c1.6,0,2.9,1.3,2.9,2.9v25c0,1.6-1.3,2.9-2.9,2.9H20c-1.6,0-2.9-1.3-2.9-2.9v-25
			C17.1,60.3,18.4,59,20,59z"/>
		<path class="st1" d="M123.5,25.7V123c0,0.8-0.6,1.4-1.4,1.4h-4.9c-0.8,0-1.4-0.6-1.4-1.4V25.7c0-0.8,0.6-1.4,1.4-1.4h4.9
			C122.9,24.3,123.5,24.9,123.5,25.7z"/>
	</g>
	<text transform="matrix(1 0 0 1 124.6599 111.6179)" class="st1 st2 st3">KANBANEL</text>
</g>
</svg>
