<svg xmlns="http://www.w3.org/2000/svg" viewBox="0 0 599.73 210"><defs><style>.cls-1{isolation:isolate;}.cls-2{fill:#7ac9d0;}.cls-3{mix-blend-mode:color-dodge;}</style></defs><g class="cls-1"><g id="Слой_1" data-name="Слой 1"><path class="cls-2" d="M105.28,24.64V64.23a18.68,18.68,0,0,1-18.7,18.66V43.29a18.68,18.68,0,0,1,18.66-18.65H84A16.11,16.11,0,0,1,67.87,8.53V48.16a18.68,18.68,0,0,1-18.7,18.66V27.2A18.68,18.68,0,0,1,67.87,8.53h21.3a16.11,16.11,0,0,1,16.11,16.11ZM86.58,82.89H65.28A16.09,16.09,0,0,1,49.17,66.82h21.3A16.09,16.09,0,0,1,86.58,82.89Z"/><path class="cls-2" d="M105.28,142.11v39.6a18.68,18.68,0,0,1-18.7,18.65V160.77a18.68,18.68,0,0,1,18.66-18.66H84A16.11,16.11,0,0,1,67.87,126v39.62a18.68,18.68,0,0,1-18.7,18.67V144.68A18.69,18.69,0,0,1,67.87,126h21.3a16.1,16.1,0,0,1,16.11,16.1Zm-18.7,58.25H65.28A16.09,16.09,0,0,1,49.17,184.3h21.3A16.08,16.08,0,0,1,86.58,200.36Z"/><path class="cls-2" d="M164.64,36.13V75.72a18.68,18.68,0,0,1-18.7,18.66V54.78A18.68,18.68,0,0,1,164.6,36.13H143.34A16.11,16.11,0,0,1,127.23,20V59.65a18.69,18.69,0,0,1-18.7,18.67V38.69A18.68,18.68,0,0,1,127.23,20h21.3a16.11,16.11,0,0,1,16.11,16.11Zm-18.7,58.25h-21.3a16.08,16.08,0,0,1-16.11-16.06h21.3A16.08,16.08,0,0,1,145.94,94.38Z"/><path class="cls-2" d="M164.64,130.62v39.6a18.68,18.68,0,0,1-18.7,18.65v-39.6a18.68,18.68,0,0,1,18.66-18.65H143.34a16.11,16.11,0,0,1-16.11-16.11v39.63a18.69,18.69,0,0,1-18.7,18.67V133.19a18.69,18.69,0,0,1,18.7-18.68h21.3a16.11,16.11,0,0,1,16.11,16.11Zm-18.7,58.25h-21.3a16.08,16.08,0,0,1-16.11-16.06h21.3A16.08,16.08,0,0,1,145.94,188.87Z"/><path class="cls-2" d="M224,24.64V64.23a18.68,18.68,0,0,1-18.7,18.66V43.29A18.68,18.68,0,0,1,224,24.64H202.7A16.11,16.11,0,0,1,186.59,8.53V48.16a18.68,18.68,0,0,1-18.7,18.66V27.2a18.68,18.68,0,0,1,18.7-18.67h21.3A16.11,16.11,0,0,1,224,24.64ZM205.3,82.89H184a16.09,16.09,0,0,1-16.11-16.07h21.3A16.09,16.09,0,0,1,205.3,82.89Z"/><path class="cls-2" d="M224,142.11v39.6a18.68,18.68,0,0,1-18.7,18.65V160.77A18.68,18.68,0,0,1,224,142.11H202.7A16.1,16.1,0,0,1,186.59,126v39.62a18.68,18.68,0,0,1-18.7,18.67V144.68A18.69,18.69,0,0,1,186.59,126h21.3A16.1,16.1,0,0,1,224,142.11Zm-18.7,58.25H184a16.08,16.08,0,0,1-16.11-16.06h21.3A16.08,16.08,0,0,1,205.3,200.36Z"/><path class="cls-2" d="M283.36,36.13V75.72a18.68,18.68,0,0,1-18.7,18.66V54.78a18.68,18.68,0,0,1,18.66-18.65H262.06A16.11,16.11,0,0,1,246,20V59.65a18.69,18.69,0,0,1-18.7,18.67V38.69A18.68,18.68,0,0,1,246,20h21.3a16.11,16.11,0,0,1,16.11,16.11Zm-18.7,58.25h-21.3a16.08,16.08,0,0,1-16.11-16.06h21.3A16.08,16.08,0,0,1,264.66,94.38Z"/><path class="cls-2" d="M283.36,130.62v39.6a18.68,18.68,0,0,1-18.7,18.65v-39.6a18.68,18.68,0,0,1,18.66-18.65H262.06A16.11,16.11,0,0,1,246,114.51v39.63a18.69,18.69,0,0,1-18.7,18.67V133.19A18.69,18.69,0,0,1,246,114.51h21.3a16.11,16.11,0,0,1,16.11,16.11Zm-18.7,58.25h-21.3a16.08,16.08,0,0,1-16.11-16.06h21.3A16.08,16.08,0,0,1,264.66,188.87Z"/><path class="cls-2" d="M342.72,24.64V64.23A18.68,18.68,0,0,1,324,82.89V43.29a18.67,18.67,0,0,1,18.66-18.65H321.42A16.11,16.11,0,0,1,305.31,8.53V48.16a18.68,18.68,0,0,1-18.7,18.66V27.2a18.68,18.68,0,0,1,18.7-18.67h21.3a16.11,16.11,0,0,1,16.11,16.11ZM324,82.89h-21.3a16.09,16.09,0,0,1-16.11-16.07h21.3A16.1,16.1,0,0,1,324,82.89Z"/><path class="cls-2" d="M342.72,142.11v39.6A18.68,18.68,0,0,1,324,200.36V160.77a18.67,18.67,0,0,1,18.66-18.66H321.42A16.1,16.1,0,0,1,305.31,126v39.62a18.68,18.68,0,0,1-18.7,18.67V144.68A18.69,18.69,0,0,1,305.31,126h21.3a16.11,16.11,0,0,1,16.11,16.1ZM324,200.36h-21.3a16.08,16.08,0,0,1-16.11-16.06h21.3A16.09,16.09,0,0,1,324,200.36Z"/><g class="cls-3"><path class="cls-2" d="M350.78,57.1V8.72A48.38,48.38,0,0,1,399.17,57.1v96.38a48.18,48.18,0,0,1-48.39,48v-48a48.19,48.19,0,0,1,48.39-48A48.38,48.38,0,0,1,350.78,57.1Z"/><path class="cls-2" d="M550.55,50.78V153.21a48.31,48.31,0,0,1-48.38,48.25V99a48.33,48.33,0,0,1,48.28-48.26h-55A41.66,41.66,0,0,1,453.78,9.11V111.62a48.33,48.33,0,0,1-48.38,48.29V57.41A48.35,48.35,0,0,1,453.78,9.1h55.1a41.67,41.67,0,0,1,41.67,41.67ZM502.17,201.47h-55.1a41.62,41.62,0,0,1-41.67-41.56h55.1A41.61,41.61,0,0,1,502.17,201.47Z"/></g></g></g></svg>