<svg id="Слой_1" data-name="Слой 1" xmlns="http://www.w3.org/2000/svg" viewBox="0 0 100 50"><defs><style>.cls-1,.cls-4{font-size:20.62px;}.cls-1,.cls-2,.cls-4{fill:#db2878;}.cls-1,.cls-3,.cls-4{font-family:THEJACKMARRON, THE JACK MARRON;}.cls-1{letter-spacing:0.04em;}.cls-3{font-size:14.03px;fill:#fff;}.cls-4{letter-spacing:0.05em;}</style></defs><text class="cls-1" transform="translate(14.69 39.22)">Planning</text><path class="cls-2" d="M3.69,17.71a1.54,1.54,0,0,1,.28-1,2.11,2.11,0,0,1,.25-.27l2.57-1.93.15.44,3.39,9.91a2.48,2.48,0,0,0,2.53,1.76.16.16,0,0,1,.12,0c-.25.18-.48.38-.74.55a1.35,1.35,0,0,1-1.88-.34C8.23,24,6.12,21.18,4,18.35l-.15-.2Z"/><path class="cls-2" d="M13.08,23.1c0-.18-.05-.36-.06-.54q-.07-5.22-.16-10.44a1.37,1.37,0,0,1,1-1.46,2.56,2.56,0,0,1,.62-.05l6.92-.11a1.35,1.35,0,0,1,1.35.73,1.54,1.54,0,0,1,.17.7q.09,5.27.16,10.53a1.36,1.36,0,0,1-1.41,1.46L14.5,24A1.41,1.41,0,0,1,13.08,23.1Z"/><path class="cls-2" d="M11.78,11.7c.06,3.62.13,7.22.16,10.82a2.55,2.55,0,0,0,2.12,2.57l.08,0-.69.24a1.85,1.85,0,0,1-.9.16,1.45,1.45,0,0,1-1.21-1c-.59-1.71-1.17-3.43-1.76-5.14L8,14.57a1.37,1.37,0,0,1,.33-1.52,1.32,1.32,0,0,1,.45-.3C9.74,12.39,10.76,12.05,11.78,11.7Z"/><text class="cls-3" transform="matrix(1, 0, 0, 1, 15.02, 21.63)">5</text><text class="cls-4" transform="translate(25.3 23.91)">Poker</text></svg>