<?xml version="1.0" encoding="UTF-8" standalone="no" ?>
<!DOCTYPE svg PUBLIC "-//W3C//DTD SVG 1.1//EN" "http://www.w3.org/Graphics/SVG/1.1/DTD/svg11.dtd">
<svg xmlns="http://www.w3.org/2000/svg" xmlns:xlink="http://www.w3.org/1999/xlink" version="1.1" width="1080" height="1080" viewBox="0 0 1080 1080" xml:space="preserve">
<desc>Created with Fabric.js 5.2.4</desc>
<defs>
</defs>
<g transform="matrix(1 0 0 1 540 540)" id="465e18ae-256a-4f14-859e-4596c49d2e90"  >
<rect style="stroke: none; stroke-width: 1; stroke-dasharray: none; stroke-linecap: butt; stroke-dashoffset: 0; stroke-linejoin: miter; stroke-miterlimit: 4; fill: rgb(255,255,255); fill-rule: nonzero; opacity: 1; visibility: hidden;" vector-effect="non-scaling-stroke"  x="-540" y="-540" rx="0" ry="0" width="1080" height="1080" />
</g>
<g transform="matrix(1 0 0 1 540 540)" id="458e8b62-17fd-49b9-8d14-20b4b24bf312"  >
</g>
<g transform="matrix(45 0 0 45 540 540)"  >
<path style="stroke: rgb(0,0,0); stroke-width: 2; stroke-dasharray: none; stroke-linecap: round; stroke-dashoffset: 0; stroke-linejoin: round; stroke-miterlimit: 4; fill: none; fill-rule: nonzero; opacity: 1;"  transform=" translate(-12, -12)" d="M 9 20 L 3.553 17.276 C 3.2142705884651375 17.106736457312234 3.000202218169136 16.760665710396097 3 16.382 L 3 5.618 C 3.0001849594314343 5.271559891682026 3.179667844601405 4.949896336979079 3.4743943293650985 4.767805474934337 C 3.769120814128792 4.5857146128895945 4.1370975395923 4.5691412001382705 4.447 4.724 L 9 7 M 9 20 L 15 17 M 9 20 L 9 7 M 15 17 L 19.553 19.276 C 19.8629024604077 19.430858799861728 20.23087918587121 19.414285387110404 20.525605670634903 19.232194525065662 C 20.820332155398596 19.05010366302092 20.999815040568564 18.728440108317976 21 18.382 L 21 7.618 C 20.999797781830864 7.239334289603905 20.785729411534863 6.893263542687765 20.447 6.724 L 15 4 M 15 17 L 15 4 M 15 4 L 9 7" stroke-linecap="round" />
</g>
</svg>