<?xml version="1.0" encoding="UTF-8" standalone="no" ?>
<!DOCTYPE svg PUBLIC "-//W3C//DTD SVG 1.1//EN" "http://www.w3.org/Graphics/SVG/1.1/DTD/svg11.dtd">
<svg xmlns="http://www.w3.org/2000/svg" xmlns:xlink="http://www.w3.org/1999/xlink" version="1.1" width="1080" height="1080" viewBox="0 0 1080 1080" xml:space="preserve">
<desc>Created with Fabric.js 5.2.4</desc>
<defs>
</defs>
<g transform="matrix(1 0 0 1 540 540)" id="a39f988f-0af9-45aa-a74c-229d5fd970c5"  >
<rect style="stroke: none; stroke-width: 1; stroke-dasharray: none; stroke-linecap: butt; stroke-dashoffset: 0; stroke-linejoin: miter; stroke-miterlimit: 4; fill: rgb(255,255,255); fill-rule: nonzero; opacity: 1; visibility: hidden;" vector-effect="non-scaling-stroke"  x="-540" y="-540" rx="0" ry="0" width="1080" height="1080" />
</g>
<g transform="matrix(1 0 0 1 540 540)" id="2bb5af80-6e11-4810-97c6-1fa93b27d499"  >
</g>
<g transform="matrix(45 0 0 45 540 540)"  >
<path style="stroke: rgb(0,0,0); stroke-width: 2; stroke-dasharray: none; stroke-linecap: round; stroke-dashoffset: 0; stroke-linejoin: round; stroke-miterlimit: 4; fill: none; fill-rule: nonzero; opacity: 1;"  transform=" translate(-11, -11)" d="M 11 4 C 11 2.8954305003384135 11.895430500338414 2 13 2 C 14.104569499661586 2 15 2.8954305003384126 15 3.9999999999999996 L 15 5 C 15 5.552284749830793 15.447715250169207 6 16 6 L 19 6 C 19.552284749830793 6 20 6.447715250169207 20 7 L 20 10 C 20 10.552284749830793 19.552284749830793 11 19 11 L 18 11 C 16.895430500338414 11 16 11.895430500338414 16 13 C 16 14.104569499661586 16.895430500338414 15 18 15 L 19 15 C 19.552284749830793 15 20 15.447715250169207 20 16 L 20 19 C 20 19.552284749830793 19.552284749830793 20 19 20 L 16 20 C 15.447715250169207 20 15 19.552284749830793 15 19 L 15 18 C 15 16.895430500338414 14.104569499661586 16 13 16 C 11.895430500338414 16 11 16.895430500338414 11 18 L 11 19 C 11 19.552284749830793 10.552284749830793 20 10 20 L 7 20 C 6.447715250169207 20 6 19.552284749830793 6 19 L 6 16 C 6 15.447715250169207 5.552284749830793 15 5 15 L 4 15 C 2.8954305003384135 15 2 14.104569499661586 2 13 C 2 11.895430500338414 2.8954305003384135 11 4 11 L 5 11 C 5.552284749830793 11 6 10.552284749830793 6 10 L 6 7 C 6 6.447715250169207 6.447715250169207 6 7 6 L 10 6 C 10.552284749830793 6 11 5.552284749830793 11 5 L 11 4 z" stroke-linecap="round" />
</g>
</svg>