<?xml version="1.0" encoding="UTF-8" standalone="no" ?>
<!DOCTYPE svg PUBLIC "-//W3C//DTD SVG 1.1//EN" "http://www.w3.org/Graphics/SVG/1.1/DTD/svg11.dtd">
<svg xmlns="http://www.w3.org/2000/svg" xmlns:xlink="http://www.w3.org/1999/xlink" version="1.1" width="1080" height="1080" viewBox="0 0 1080 1080" xml:space="preserve">
<desc>Created with Fabric.js 5.2.4</desc>
<defs>
</defs>
<g transform="matrix(1 0 0 1 540 540)" id="18c4e69b-2345-4618-95b2-d57404e43c02"  >
<rect style="stroke: none; stroke-width: 1; stroke-dasharray: none; stroke-linecap: butt; stroke-dashoffset: 0; stroke-linejoin: miter; stroke-miterlimit: 4; fill: rgb(255,255,255); fill-rule: nonzero; opacity: 1; visibility: hidden;" vector-effect="non-scaling-stroke"  x="-540" y="-540" rx="0" ry="0" width="1080" height="1080" />
</g>
<g transform="matrix(1 0 0 1 540 540)" id="1ed4755a-7d4b-4c33-92bd-b3286cfc0b2c"  >
</g>
<g transform="matrix(45 0 0 45 540 540)"  >
<path style="stroke: rgb(0,0,0); stroke-width: 2; stroke-dasharray: none; stroke-linecap: round; stroke-dashoffset: 0; stroke-linejoin: round; stroke-miterlimit: 4; fill: none; fill-rule: nonzero; opacity: 1;"  transform=" translate(-12, -12.68)" d="M 4.318 6.318 C 3.4740743774021157 7.161915287177004 2.9999610305596143 8.306516247111729 2.9999610305596143 9.5 C 2.9999610305596143 10.69348375288827 3.4740743774021157 11.838084712822994 4.318 12.681999999999999 L 12 20.364 L 19.682000000000002 12.682 C 21.439370073961587 10.924629926038415 21.439370073961587 8.075370073961585 19.682000000000002 6.318 C 17.924629926038417 4.560629926038414 15.075370073961587 4.560629926038416 13.318000000000001 6.318 L 12 7.636 L 10.682 6.318 C 9.838084712822996 5.474074377402116 8.693483752888271 4.999961030559614 7.5 4.999961030559614 C 6.3065162471117295 4.999961030559614 5.1619152871770035 5.4740743774021166 4.318 6.318000000000001 z" stroke-linecap="round" />
</g>
</svg>